<svg width="1500" height="227" viewBox="0 0 1500 227" fill="none" xmlns="http://www.w3.org/2000/svg">
<rect width="1500" height="227" rx="10" fill="url(#paint0_linear_28_77)"/>
<g filter="url(#filter0_d_28_77)">
<path d="M657.871 65.5875C660.308 65.5875 662.532 65.7858 664.543 66.1825C666.583 66.5792 668.269 67.0183 669.601 67.5C670.961 67.9533 671.811 68.3075 672.151 68.5625L667.433 77.3175C666.923 76.9492 665.932 76.4675 664.458 75.8725C663.013 75.2492 661.413 74.9375 659.656 74.9375C658.494 74.9375 657.531 75.0792 656.766 75.3625C656.029 75.6175 655.661 76.0708 655.661 76.7225C655.661 77.3458 656.1 77.87 656.978 78.295C657.857 78.6917 659.188 79.0458 660.973 79.3575C662.588 79.6692 664.288 80.1933 666.073 80.93C667.858 81.6383 669.36 82.7292 670.578 84.2025C671.825 85.6475 672.448 87.5883 672.448 90.025C672.448 92.6317 671.882 94.7567 670.748 96.4C669.615 98.015 668.128 99.2758 666.286 100.182C664.473 101.061 662.503 101.67 660.378 102.01C658.282 102.35 656.27 102.52 654.343 102.52C651.51 102.52 649.059 102.265 646.991 101.755C644.923 101.273 643.265 100.721 642.018 100.098C640.8 99.4742 639.964 98.9925 639.511 98.6525L644.143 88.92C644.88 89.515 646.07 90.195 647.713 90.96C649.385 91.725 651.113 92.1075 652.898 92.1075C654.485 92.1075 655.675 91.9375 656.468 91.5975C657.29 91.2292 657.701 90.7333 657.701 90.11C657.701 89.6283 657.503 89.2317 657.106 88.92C656.709 88.6083 656.128 88.325 655.363 88.07C654.598 87.815 653.635 87.5742 652.473 87.3475C651.425 87.1492 650.263 86.8233 648.988 86.37C647.713 85.8883 646.495 85.2225 645.333 84.3725C644.2 83.5225 643.251 82.4458 642.486 81.1425C641.749 79.8108 641.381 78.1958 641.381 76.2975C641.381 73.8608 642.174 71.8633 643.761 70.305C645.348 68.7183 647.388 67.5425 649.881 66.7775C652.403 65.9842 655.066 65.5875 657.871 65.5875ZM704.7 65.5875C707.222 65.5875 709.658 66.0833 712.01 67.075C714.39 68.0667 716.345 69.6533 717.875 71.835C719.433 74.0167 720.212 76.8642 720.212 80.3775V101.5H705.167V82.8C705.167 80.675 704.7 79.0458 703.765 77.9125C702.858 76.7508 701.555 76.17 699.855 76.17C698.75 76.17 697.687 76.4533 696.667 77.02C695.647 77.5867 694.826 78.38 694.202 79.4C693.579 80.42 693.267 81.61 693.267 82.97V101.5H678.222V43.02H693.267V71.325C693.607 70.39 694.316 69.4975 695.392 68.6475C696.497 67.7692 697.857 67.0467 699.472 66.48C701.087 65.885 702.83 65.5875 704.7 65.5875ZM745.361 102.52C741.451 102.52 737.98 101.741 734.948 100.182C731.916 98.6242 729.536 96.4708 727.808 93.7225C726.08 90.9458 725.216 87.7583 725.216 84.16C725.216 80.5617 726.08 77.3742 727.808 74.5975C729.536 71.7925 731.916 69.5967 734.948 68.01C737.98 66.395 741.451 65.5875 745.361 65.5875C749.242 65.5875 752.671 66.395 755.646 68.01C758.649 69.5967 760.986 71.7925 762.658 74.5975C764.358 77.3742 765.208 80.5617 765.208 84.16C765.208 87.7583 764.358 90.9458 762.658 93.7225C760.986 96.4708 758.649 98.6242 755.646 100.182C752.671 101.741 749.242 102.52 745.361 102.52ZM745.361 90.2375C746.522 90.2375 747.528 89.9967 748.378 89.515C749.228 89.005 749.88 88.2825 750.333 87.3475C750.786 86.4125 751.013 85.3217 751.013 84.075C751.013 82.8567 750.786 81.78 750.333 80.845C749.88 79.91 749.228 79.1875 748.378 78.6775C747.528 78.1392 746.522 77.87 745.361 77.87C744.171 77.87 743.151 78.1392 742.301 78.6775C741.451 79.1875 740.785 79.91 740.303 80.845C739.821 81.78 739.581 82.8567 739.581 84.075C739.581 85.3217 739.821 86.4125 740.303 87.3475C740.785 88.2825 741.451 89.005 742.301 89.515C743.151 89.9967 744.171 90.2375 745.361 90.2375ZM784.925 101.5H769.88V66.6075H784.925V71.75H784.712C784.996 71.1267 785.562 70.3333 786.412 69.37C787.291 68.4067 788.509 67.5425 790.067 66.7775C791.654 65.9842 793.623 65.5875 795.975 65.5875C797.561 65.5875 799.063 65.8425 800.48 66.3525C801.896 66.8625 802.931 67.3583 803.582 67.84L797.802 80.0375C797.434 79.4992 796.74 78.9608 795.72 78.4225C794.7 77.8558 793.439 77.5725 791.937 77.5725C790.237 77.5725 788.863 77.955 787.815 78.72C786.795 79.4567 786.058 80.3775 785.605 81.4825C785.151 82.5875 784.925 83.65 784.925 84.67V101.5ZM804.75 66.6075H810.36V52.285H825.235V66.6075H832.63V78.89H825.235V85.69C825.235 86.9083 825.39 87.9567 825.702 88.835C826.042 89.685 826.75 90.11 827.827 90.11C828.479 90.11 829.06 89.9683 829.57 89.685C830.08 89.3733 830.391 89.1608 830.505 89.0475L835.52 99.6725C835.293 99.8425 834.599 100.168 833.437 100.65C832.304 101.103 830.859 101.528 829.102 101.925C827.374 102.322 825.447 102.52 823.322 102.52C819.554 102.52 816.451 101.486 814.015 99.4175C811.578 97.3208 810.36 94.105 810.36 89.77V78.89H804.75V66.6075ZM848.65 102.52C846.327 102.52 844.329 101.698 842.658 100.055C841.014 98.3833 840.193 96.3858 840.193 94.0625C840.193 91.6825 841.014 89.6708 842.658 88.0275C844.329 86.3558 846.327 85.52 848.65 85.52C851.002 85.52 852.999 86.3558 854.643 88.0275C856.314 89.6708 857.15 91.6825 857.15 94.0625C857.15 96.3858 856.314 98.3833 854.643 100.055C852.999 101.698 851.002 102.52 848.65 102.52Z" fill="url(#paint1_linear_28_77)"/>
</g>
<path d="M351.913 138.62C353.58 138.62 355.053 138.807 356.333 139.18C357.626 139.54 358.666 139.927 359.453 140.34C360.24 140.74 360.72 141.007 360.893 141.14L357.573 146.74C357.36 146.567 356.993 146.333 356.473 146.04C355.953 145.747 355.353 145.487 354.673 145.26C354.006 145.02 353.34 144.9 352.673 144.9C351.82 144.9 351.12 145.04 350.573 145.32C350.04 145.587 349.773 146.007 349.773 146.58C349.773 146.98 349.92 147.34 350.213 147.66C350.506 147.98 350.973 148.3 351.613 148.62C352.266 148.94 353.126 149.287 354.193 149.66C355.193 150.007 356.12 150.427 356.973 150.92C357.84 151.413 358.593 152 359.233 152.68C359.873 153.36 360.373 154.14 360.733 155.02C361.106 155.9 361.293 156.893 361.293 158C361.293 159.413 361 160.627 360.413 161.64C359.84 162.64 359.06 163.46 358.073 164.1C357.1 164.74 356 165.213 354.773 165.52C353.546 165.827 352.293 165.98 351.013 165.98C349.12 165.98 347.426 165.773 345.933 165.36C344.453 164.933 343.253 164.473 342.333 163.98C341.426 163.487 340.88 163.147 340.693 162.96L344.113 157.14C344.26 157.26 344.573 157.453 345.053 157.72C345.533 157.987 346.106 158.267 346.773 158.56C347.453 158.853 348.166 159.1 348.913 159.3C349.66 159.5 350.366 159.6 351.033 159.6C352.046 159.6 352.8 159.433 353.293 159.1C353.786 158.753 354.033 158.28 354.033 157.68C354.033 157.24 353.88 156.847 353.573 156.5C353.266 156.14 352.766 155.787 352.073 155.44C351.38 155.08 350.453 154.68 349.293 154.24C348.146 153.8 347.066 153.253 346.053 152.6C345.053 151.933 344.233 151.08 343.593 150.04C342.966 149 342.653 147.707 342.653 146.16C342.653 144.6 343.086 143.26 343.953 142.14C344.833 141.007 345.98 140.14 347.393 139.54C348.806 138.927 350.313 138.62 351.913 138.62ZM364.844 165.5V149.08H371.904V165.5H364.844ZM368.464 146.56C367.384 146.56 366.464 146.18 365.704 145.42C364.957 144.66 364.584 143.753 364.584 142.7C364.584 141.647 364.957 140.733 365.704 139.96C366.464 139.187 367.384 138.8 368.464 138.8C369.17 138.8 369.817 138.98 370.404 139.34C370.99 139.687 371.464 140.153 371.824 140.74C372.184 141.327 372.364 141.98 372.364 142.7C372.364 143.753 371.977 144.66 371.204 145.42C370.444 146.18 369.53 146.56 368.464 146.56ZM399.36 148.6C400.613 148.6 401.727 148.853 402.7 149.36C403.687 149.867 404.46 150.653 405.02 151.72C405.593 152.773 405.88 154.14 405.88 155.82V165.5H398.92V156.82C398.92 155.913 398.773 155.147 398.48 154.52C398.2 153.893 397.6 153.58 396.68 153.58C396.093 153.58 395.6 153.727 395.2 154.02C394.8 154.313 394.5 154.707 394.3 155.2C394.113 155.68 394.02 156.22 394.02 156.82V165.5H387.54V156.82C387.54 155.913 387.393 155.147 387.1 154.52C386.82 153.893 386.227 153.58 385.32 153.58C384.733 153.58 384.24 153.727 383.84 154.02C383.44 154.3 383.14 154.687 382.94 155.18C382.74 155.66 382.64 156.207 382.64 156.82V165.5H375.62V149.08H382.64V151.36C382.8 150.947 383.16 150.527 383.72 150.1C384.293 149.673 384.98 149.32 385.78 149.04C386.593 148.747 387.44 148.6 388.32 148.6C389.293 148.6 390.1 148.72 390.74 148.96C391.393 149.2 391.933 149.54 392.36 149.98C392.8 150.42 393.167 150.927 393.46 151.5C393.647 151.06 394.02 150.62 394.58 150.18C395.14 149.727 395.84 149.353 396.68 149.06C397.52 148.753 398.413 148.6 399.36 148.6ZM415.842 173.82H408.842V149.08H415.902V151.22C416.116 150.86 416.476 150.48 416.982 150.08C417.502 149.667 418.156 149.32 418.942 149.04C419.729 148.747 420.609 148.6 421.582 148.6C423.209 148.6 424.582 149.007 425.702 149.82C426.836 150.62 427.696 151.68 428.282 153C428.882 154.32 429.182 155.753 429.182 157.3C429.182 158.847 428.862 160.28 428.222 161.6C427.582 162.92 426.676 163.98 425.502 164.78C424.329 165.58 422.929 165.98 421.302 165.98C420.196 165.98 419.256 165.793 418.482 165.42C417.722 165.033 417.122 164.607 416.682 164.14C416.256 163.66 415.976 163.293 415.842 163.04V173.82ZM422.262 157.3C422.262 156.713 422.122 156.18 421.842 155.7C421.576 155.207 421.202 154.82 420.722 154.54C420.242 154.247 419.702 154.1 419.102 154.1C418.476 154.1 417.922 154.247 417.442 154.54C416.962 154.82 416.582 155.207 416.302 155.7C416.036 156.18 415.902 156.713 415.902 157.3C415.902 157.887 416.036 158.427 416.302 158.92C416.582 159.4 416.962 159.78 417.442 160.06C417.922 160.34 418.476 160.48 419.102 160.48C419.702 160.48 420.242 160.34 420.722 160.06C421.202 159.78 421.576 159.4 421.842 158.92C422.122 158.427 422.262 157.887 422.262 157.3ZM439.028 165.5H431.928V137.98H439.028V165.5ZM448.396 158.72C448.449 159.16 448.623 159.547 448.916 159.88C449.223 160.2 449.623 160.453 450.116 160.64C450.623 160.813 451.216 160.9 451.896 160.9C452.563 160.9 453.189 160.853 453.776 160.76C454.363 160.653 454.883 160.513 455.336 160.34C455.803 160.167 456.169 159.973 456.436 159.76L459.056 164.16C458.763 164.413 458.323 164.68 457.736 164.96C457.149 165.24 456.343 165.48 455.316 165.68C454.303 165.88 453.003 165.98 451.416 165.98C449.576 165.98 447.923 165.653 446.456 165C444.989 164.347 443.829 163.367 442.976 162.06C442.123 160.74 441.696 159.093 441.696 157.12C441.696 155.52 442.056 154.08 442.776 152.8C443.496 151.507 444.536 150.487 445.896 149.74C447.256 148.98 448.903 148.6 450.836 148.6C452.689 148.6 454.296 148.927 455.656 149.58C457.016 150.22 458.063 151.193 458.796 152.5C459.529 153.807 459.896 155.46 459.896 157.46C459.896 157.567 459.889 157.78 459.876 158.1C459.876 158.42 459.863 158.627 459.836 158.72H448.396ZM453.236 155.52C453.223 155.08 453.123 154.687 452.936 154.34C452.763 153.993 452.509 153.72 452.176 153.52C451.843 153.32 451.436 153.22 450.956 153.22C450.489 153.22 450.076 153.313 449.716 153.5C449.356 153.687 449.076 153.953 448.876 154.3C448.676 154.633 448.563 155.04 448.536 155.52H453.236ZM480.669 165.5H473.569V137.98H480.669V165.5ZM484.297 165.5V149.08H491.357V165.5H484.297ZM487.917 146.56C486.837 146.56 485.917 146.18 485.157 145.42C484.41 144.66 484.037 143.753 484.037 142.7C484.037 141.647 484.41 140.733 485.157 139.96C485.917 139.187 486.837 138.8 487.917 138.8C488.623 138.8 489.27 138.98 489.857 139.34C490.443 139.687 490.917 140.153 491.277 140.74C491.637 141.327 491.817 141.98 491.817 142.7C491.817 143.753 491.43 144.66 490.657 145.42C489.897 146.18 488.983 146.56 487.917 146.56ZM507.233 148.6C508.42 148.6 509.573 148.833 510.693 149.3C511.813 149.767 512.733 150.513 513.453 151.54C514.187 152.567 514.553 153.907 514.553 155.56V165.5H507.453V156.7C507.453 155.7 507.213 154.933 506.733 154.4C506.253 153.853 505.613 153.58 504.813 153.58C504.293 153.58 503.807 153.713 503.353 153.98C502.9 154.247 502.533 154.62 502.253 155.1C501.987 155.58 501.853 156.14 501.853 156.78V165.5H494.773V149.08H501.853V151.3C502.027 150.86 502.367 150.44 502.873 150.04C503.38 149.627 504.013 149.287 504.773 149.02C505.533 148.74 506.353 148.6 507.233 148.6ZM529.371 149.08H537.271L529.791 156.92L538.151 165.5H530.051L524.211 159.16V165.5H517.131V137.98H524.211V154.48L529.371 149.08ZM558.169 148.6C559.315 148.6 560.362 148.693 561.309 148.88C562.269 149.067 563.062 149.273 563.689 149.5C564.329 149.713 564.729 149.88 564.889 150L562.669 154.12C562.429 153.947 561.962 153.72 561.269 153.44C560.589 153.147 559.835 153 559.009 153C558.462 153 558.009 153.067 557.649 153.2C557.302 153.32 557.129 153.533 557.129 153.84C557.129 154.133 557.335 154.38 557.749 154.58C558.162 154.767 558.789 154.933 559.629 155.08C560.389 155.227 561.189 155.473 562.029 155.82C562.869 156.153 563.575 156.667 564.149 157.36C564.735 158.04 565.029 158.953 565.029 160.1C565.029 161.327 564.762 162.327 564.229 163.1C563.695 163.86 562.995 164.453 562.129 164.88C561.275 165.293 560.349 165.58 559.349 165.74C558.362 165.9 557.415 165.98 556.509 165.98C555.175 165.98 554.022 165.86 553.049 165.62C552.075 165.393 551.295 165.133 550.709 164.84C550.135 164.547 549.742 164.32 549.529 164.16L551.709 159.58C552.055 159.86 552.615 160.18 553.389 160.54C554.175 160.9 554.989 161.08 555.829 161.08C556.575 161.08 557.135 161 557.509 160.84C557.895 160.667 558.089 160.433 558.089 160.14C558.089 159.913 557.995 159.727 557.809 159.58C557.622 159.433 557.349 159.3 556.989 159.18C556.629 159.06 556.175 158.947 555.629 158.84C555.135 158.747 554.589 158.593 553.989 158.38C553.389 158.153 552.815 157.84 552.269 157.44C551.735 157.04 551.289 156.533 550.929 155.92C550.582 155.293 550.409 154.533 550.409 153.64C550.409 152.493 550.782 151.553 551.529 150.82C552.275 150.073 553.235 149.52 554.409 149.16C555.595 148.787 556.849 148.6 558.169 148.6ZM580.206 148.6C581.392 148.6 582.539 148.833 583.646 149.3C584.766 149.767 585.686 150.513 586.406 151.54C587.139 152.567 587.506 153.907 587.506 155.56V165.5H580.426V156.7C580.426 155.7 580.206 154.933 579.766 154.4C579.339 153.853 578.726 153.58 577.926 153.58C577.406 153.58 576.906 153.713 576.426 153.98C575.946 154.247 575.559 154.62 575.266 155.1C574.972 155.58 574.826 156.14 574.826 156.78V165.5H567.746V137.98H574.826V151.3C574.986 150.86 575.319 150.44 575.826 150.04C576.346 149.627 576.986 149.287 577.746 149.02C578.506 148.74 579.326 148.6 580.206 148.6ZM599.34 165.98C597.5 165.98 595.867 165.613 594.44 164.88C593.013 164.147 591.893 163.133 591.08 161.84C590.267 160.533 589.86 159.033 589.86 157.34C589.86 155.647 590.267 154.147 591.08 152.84C591.893 151.52 593.013 150.487 594.44 149.74C595.867 148.98 597.5 148.6 599.34 148.6C601.167 148.6 602.78 148.98 604.18 149.74C605.593 150.487 606.693 151.52 607.48 152.84C608.28 154.147 608.68 155.647 608.68 157.34C608.68 159.033 608.28 160.533 607.48 161.84C606.693 163.133 605.593 164.147 604.18 164.88C602.78 165.613 601.167 165.98 599.34 165.98ZM599.34 160.2C599.887 160.2 600.36 160.087 600.76 159.86C601.16 159.62 601.467 159.28 601.68 158.84C601.893 158.4 602 157.887 602 157.3C602 156.727 601.893 156.22 601.68 155.78C601.467 155.34 601.16 155 600.76 154.76C600.36 154.507 599.887 154.38 599.34 154.38C598.78 154.38 598.3 154.507 597.9 154.76C597.5 155 597.187 155.34 596.96 155.78C596.733 156.22 596.62 156.727 596.62 157.3C596.62 157.887 596.733 158.4 596.96 158.84C597.187 159.28 597.5 159.62 597.9 159.86C598.3 160.087 598.78 160.2 599.34 160.2ZM617.959 165.5H610.879V149.08H617.959V151.5H617.859C617.992 151.207 618.259 150.833 618.659 150.38C619.072 149.927 619.645 149.52 620.379 149.16C621.125 148.787 622.052 148.6 623.159 148.6C623.905 148.6 624.612 148.72 625.279 148.96C625.945 149.2 626.432 149.433 626.739 149.66L624.019 155.4C623.845 155.147 623.519 154.893 623.039 154.64C622.559 154.373 621.965 154.24 621.259 154.24C620.459 154.24 619.812 154.42 619.319 154.78C618.839 155.127 618.492 155.56 618.279 156.08C618.065 156.6 617.959 157.1 617.959 157.58V165.5ZM627.288 149.08H629.928V142.34H636.928V149.08H640.408V154.86H636.928V158.06C636.928 158.633 637.001 159.127 637.148 159.54C637.308 159.94 637.641 160.14 638.148 160.14C638.455 160.14 638.728 160.073 638.968 159.94C639.208 159.793 639.355 159.693 639.408 159.64L641.768 164.64C641.661 164.72 641.335 164.873 640.788 165.1C640.255 165.313 639.575 165.513 638.748 165.7C637.935 165.887 637.028 165.98 636.028 165.98C634.255 165.98 632.795 165.493 631.648 164.52C630.501 163.533 629.928 162.02 629.928 159.98V154.86H627.288V149.08ZM649.607 158.72C649.66 159.16 649.834 159.547 650.127 159.88C650.434 160.2 650.834 160.453 651.327 160.64C651.834 160.813 652.427 160.9 653.107 160.9C653.774 160.9 654.4 160.853 654.987 160.76C655.574 160.653 656.094 160.513 656.547 160.34C657.014 160.167 657.38 159.973 657.647 159.76L660.267 164.16C659.974 164.413 659.534 164.68 658.947 164.96C658.36 165.24 657.554 165.48 656.527 165.68C655.514 165.88 654.214 165.98 652.627 165.98C650.787 165.98 649.134 165.653 647.667 165C646.2 164.347 645.04 163.367 644.187 162.06C643.334 160.74 642.907 159.093 642.907 157.12C642.907 155.52 643.267 154.08 643.987 152.8C644.707 151.507 645.747 150.487 647.107 149.74C648.467 148.98 650.114 148.6 652.047 148.6C653.9 148.6 655.507 148.927 656.867 149.58C658.227 150.22 659.274 151.193 660.007 152.5C660.74 153.807 661.107 155.46 661.107 157.46C661.107 157.567 661.1 157.78 661.087 158.1C661.087 158.42 661.074 158.627 661.047 158.72H649.607ZM654.447 155.52C654.434 155.08 654.334 154.687 654.147 154.34C653.974 153.993 653.72 153.72 653.387 153.52C653.054 153.32 652.647 153.22 652.167 153.22C651.7 153.22 651.287 153.313 650.927 153.5C650.567 153.687 650.287 153.953 650.087 154.3C649.887 154.633 649.774 155.04 649.747 155.52H654.447ZM676.1 148.6C677.287 148.6 678.44 148.833 679.56 149.3C680.68 149.767 681.6 150.513 682.32 151.54C683.054 152.567 683.42 153.907 683.42 155.56V165.5H676.32V156.7C676.32 155.7 676.08 154.933 675.6 154.4C675.12 153.853 674.48 153.58 673.68 153.58C673.16 153.58 672.674 153.713 672.22 153.98C671.767 154.247 671.4 154.62 671.12 155.1C670.854 155.58 670.72 156.14 670.72 156.78V165.5H663.64V149.08H670.72V151.3C670.894 150.86 671.234 150.44 671.74 150.04C672.247 149.627 672.88 149.287 673.64 149.02C674.4 148.74 675.22 148.6 676.1 148.6ZM692.459 158.72C692.512 159.16 692.685 159.547 692.979 159.88C693.285 160.2 693.685 160.453 694.179 160.64C694.685 160.813 695.279 160.9 695.959 160.9C696.625 160.9 697.252 160.853 697.839 160.76C698.425 160.653 698.945 160.513 699.399 160.34C699.865 160.167 700.232 159.973 700.499 159.76L703.119 164.16C702.825 164.413 702.385 164.68 701.799 164.96C701.212 165.24 700.405 165.48 699.379 165.68C698.365 165.88 697.065 165.98 695.479 165.98C693.639 165.98 691.985 165.653 690.519 165C689.052 164.347 687.892 163.367 687.039 162.06C686.185 160.74 685.759 159.093 685.759 157.12C685.759 155.52 686.119 154.08 686.839 152.8C687.559 151.507 688.599 150.487 689.959 149.74C691.319 148.98 692.965 148.6 694.899 148.6C696.752 148.6 698.359 148.927 699.719 149.58C701.079 150.22 702.125 151.193 702.859 152.5C703.592 153.807 703.959 155.46 703.959 157.46C703.959 157.567 703.952 157.78 703.939 158.1C703.939 158.42 703.925 158.627 703.899 158.72H692.459ZM697.299 155.52C697.285 155.08 697.185 154.687 696.999 154.34C696.825 153.993 696.572 153.72 696.239 153.52C695.905 153.32 695.499 153.22 695.019 153.22C694.552 153.22 694.139 153.313 693.779 153.5C693.419 153.687 693.139 153.953 692.939 154.3C692.739 154.633 692.625 155.04 692.599 155.52H697.299ZM713.232 165.5H706.152V149.08H713.232V151.5H713.132C713.265 151.207 713.532 150.833 713.932 150.38C714.345 149.927 714.919 149.52 715.652 149.16C716.399 148.787 717.325 148.6 718.432 148.6C719.179 148.6 719.885 148.72 720.552 148.96C721.219 149.2 721.705 149.433 722.012 149.66L719.292 155.4C719.119 155.147 718.792 154.893 718.312 154.64C717.832 154.373 717.239 154.24 716.532 154.24C715.732 154.24 715.085 154.42 714.592 154.78C714.112 155.127 713.765 155.56 713.552 156.08C713.339 156.6 713.232 157.1 713.232 157.58V165.5ZM733.114 149.08H735.594V144.86C735.594 143.287 735.954 141.953 736.674 140.86C737.394 139.767 738.327 138.933 739.474 138.36C740.621 137.787 741.821 137.5 743.074 137.5C744.621 137.5 745.794 137.707 746.594 138.12C747.407 138.533 747.927 138.847 748.154 139.06L745.474 144.2C745.407 144.107 745.254 143.96 745.014 143.76C744.774 143.56 744.474 143.46 744.114 143.46C743.887 143.46 743.661 143.52 743.434 143.64C743.207 143.76 743.021 143.96 742.874 144.24C742.727 144.52 742.654 144.927 742.654 145.46V149.08H746.494V154.86H742.654V165.5H735.594V154.86H733.114V149.08ZM757.465 165.98C755.625 165.98 753.992 165.613 752.565 164.88C751.138 164.147 750.018 163.133 749.205 161.84C748.392 160.533 747.985 159.033 747.985 157.34C747.985 155.647 748.392 154.147 749.205 152.84C750.018 151.52 751.138 150.487 752.565 149.74C753.992 148.98 755.625 148.6 757.465 148.6C759.292 148.6 760.905 148.98 762.305 149.74C763.718 150.487 764.818 151.52 765.605 152.84C766.405 154.147 766.805 155.647 766.805 157.34C766.805 159.033 766.405 160.533 765.605 161.84C764.818 163.133 763.718 164.147 762.305 164.88C760.905 165.613 759.292 165.98 757.465 165.98ZM757.465 160.2C758.012 160.2 758.485 160.087 758.885 159.86C759.285 159.62 759.592 159.28 759.805 158.84C760.018 158.4 760.125 157.887 760.125 157.3C760.125 156.727 760.018 156.22 759.805 155.78C759.592 155.34 759.285 155 758.885 154.76C758.485 154.507 758.012 154.38 757.465 154.38C756.905 154.38 756.425 154.507 756.025 154.76C755.625 155 755.312 155.34 755.085 155.78C754.858 156.22 754.745 156.727 754.745 157.3C754.745 157.887 754.858 158.4 755.085 158.84C755.312 159.28 755.625 159.62 756.025 159.86C756.425 160.087 756.905 160.2 757.465 160.2ZM776.084 165.5H769.004V149.08H776.084V151.5H775.984C776.117 151.207 776.384 150.833 776.784 150.38C777.197 149.927 777.77 149.52 778.504 149.16C779.25 148.787 780.177 148.6 781.284 148.6C782.03 148.6 782.737 148.72 783.404 148.96C784.07 149.2 784.557 149.433 784.864 149.66L782.144 155.4C781.97 155.147 781.644 154.893 781.164 154.64C780.684 154.373 780.09 154.24 779.384 154.24C778.584 154.24 777.937 154.42 777.444 154.78C776.964 155.127 776.617 155.56 776.404 156.08C776.19 156.6 776.084 157.1 776.084 157.58V165.5ZM811.485 159.08C812.539 159.08 813.532 158.92 814.465 158.6C815.399 158.28 816.112 157.96 816.605 157.64L819.565 163.54C818.939 164.073 817.859 164.613 816.325 165.16C814.805 165.707 813.005 165.98 810.925 165.98C808.979 165.98 807.145 165.64 805.425 164.96C803.705 164.28 802.179 163.327 800.845 162.1C799.525 160.873 798.492 159.433 797.745 157.78C796.999 156.113 796.625 154.3 796.625 152.34C796.625 150.38 796.999 148.567 797.745 146.9C798.492 145.22 799.525 143.767 800.845 142.54C802.165 141.3 803.685 140.34 805.405 139.66C807.139 138.967 808.979 138.62 810.925 138.62C813.005 138.62 814.805 138.893 816.325 139.44C817.859 139.987 818.939 140.527 819.565 141.06L816.605 146.96C816.112 146.64 815.399 146.32 814.465 146C813.532 145.68 812.539 145.52 811.485 145.52C810.179 145.52 809.059 145.713 808.125 146.1C807.205 146.487 806.452 147.007 805.865 147.66C805.279 148.313 804.845 149.04 804.565 149.84C804.299 150.64 804.165 151.453 804.165 152.28C804.165 153.12 804.299 153.947 804.565 154.76C804.845 155.56 805.279 156.287 805.865 156.94C806.452 157.593 807.205 158.113 808.125 158.5C809.059 158.887 810.179 159.08 811.485 159.08ZM830.122 165.5H823.022V137.98H830.122V165.5ZM842.27 165.98C840.43 165.98 838.797 165.613 837.37 164.88C835.943 164.147 834.823 163.133 834.01 161.84C833.197 160.533 832.79 159.033 832.79 157.34C832.79 155.647 833.197 154.147 834.01 152.84C834.823 151.52 835.943 150.487 837.37 149.74C838.797 148.98 840.43 148.6 842.27 148.6C844.097 148.6 845.71 148.98 847.11 149.74C848.523 150.487 849.623 151.52 850.41 152.84C851.21 154.147 851.61 155.647 851.61 157.34C851.61 159.033 851.21 160.533 850.41 161.84C849.623 163.133 848.523 164.147 847.11 164.88C845.71 165.613 844.097 165.98 842.27 165.98ZM842.27 160.2C842.817 160.2 843.29 160.087 843.69 159.86C844.09 159.62 844.397 159.28 844.61 158.84C844.823 158.4 844.93 157.887 844.93 157.3C844.93 156.727 844.823 156.22 844.61 155.78C844.397 155.34 844.09 155 843.69 154.76C843.29 154.507 842.817 154.38 842.27 154.38C841.71 154.38 841.23 154.507 840.83 154.76C840.43 155 840.117 155.34 839.89 155.78C839.663 156.22 839.55 156.727 839.55 157.3C839.55 157.887 839.663 158.4 839.89 158.84C840.117 159.28 840.43 159.62 840.83 159.86C841.23 160.087 841.71 160.2 842.27 160.2ZM861.208 156.42C861.208 157.567 861.408 158.487 861.808 159.18C862.208 159.86 862.922 160.2 863.948 160.2C864.988 160.2 865.708 159.86 866.108 159.18C866.508 158.487 866.708 157.567 866.708 156.42V149.08H873.668V157.14C873.668 158.953 873.288 160.527 872.528 161.86C871.768 163.18 870.662 164.2 869.208 164.92C867.768 165.627 866.015 165.98 863.948 165.98C861.895 165.98 860.148 165.627 858.708 164.92C857.268 164.2 856.162 163.18 855.388 161.86C854.628 160.527 854.248 158.953 854.248 157.14V149.08H861.208V156.42ZM883.929 165.98C882.303 165.98 880.909 165.58 879.749 164.78C878.589 163.98 877.689 162.92 877.049 161.6C876.423 160.28 876.109 158.847 876.109 157.3C876.109 155.753 876.423 154.32 877.049 153C877.689 151.68 878.589 150.62 879.749 149.82C880.909 149.007 882.303 148.6 883.929 148.6C884.916 148.6 885.796 148.747 886.569 149.04C887.343 149.32 887.969 149.667 888.449 150.08C888.943 150.48 889.256 150.86 889.389 151.22V137.98H896.449V165.5H889.449V163.04C889.143 163.56 888.703 164.047 888.129 164.5C887.569 164.94 886.923 165.293 886.189 165.56C885.469 165.84 884.716 165.98 883.929 165.98ZM886.189 160.48C886.816 160.48 887.369 160.34 887.849 160.06C888.329 159.78 888.703 159.4 888.969 158.92C889.249 158.427 889.389 157.887 889.389 157.3C889.389 156.713 889.249 156.18 888.969 155.7C888.703 155.207 888.329 154.82 887.849 154.54C887.369 154.247 886.816 154.1 886.189 154.1C885.589 154.1 885.049 154.247 884.569 154.54C884.089 154.82 883.709 155.207 883.429 155.7C883.163 156.18 883.029 156.713 883.029 157.3C883.029 157.887 883.163 158.427 883.429 158.92C883.709 159.4 884.089 159.78 884.569 160.06C885.049 160.34 885.589 160.48 886.189 160.48ZM898.7 149.08H901.18V144.86C901.18 143.287 901.54 141.953 902.26 140.86C902.98 139.767 903.913 138.933 905.06 138.36C906.207 137.787 907.407 137.5 908.66 137.5C910.207 137.5 911.38 137.707 912.18 138.12C912.993 138.533 913.513 138.847 913.74 139.06L911.06 144.2C910.993 144.107 910.84 143.96 910.6 143.76C910.36 143.56 910.06 143.46 909.7 143.46C909.473 143.46 909.247 143.52 909.02 143.64C908.793 143.76 908.607 143.96 908.46 144.24C908.313 144.52 908.24 144.927 908.24 145.46V149.08H912.08V154.86H908.24V165.5H901.18V154.86H898.7V149.08ZM921.4 165.5H914.3V137.98H921.4V165.5ZM937.459 165.5V163.04C937.326 163.293 937.026 163.66 936.559 164.14C936.092 164.607 935.472 165.033 934.699 165.42C933.939 165.793 933.046 165.98 932.019 165.98C930.392 165.98 928.986 165.58 927.799 164.78C926.612 163.98 925.692 162.92 925.039 161.6C924.399 160.28 924.079 158.847 924.079 157.3C924.079 155.753 924.399 154.32 925.039 153C925.692 151.68 926.612 150.62 927.799 149.82C928.986 149.007 930.392 148.6 932.019 148.6C932.992 148.6 933.839 148.747 934.559 149.04C935.292 149.333 935.892 149.68 936.359 150.08C936.839 150.48 937.179 150.86 937.379 151.22V149.08H944.419V165.5H937.459ZM931.019 157.3C931.019 157.887 931.159 158.427 931.439 158.92C931.719 159.4 932.099 159.78 932.579 160.06C933.059 160.34 933.606 160.48 934.219 160.48C934.832 160.48 935.372 160.34 935.839 160.06C936.319 159.78 936.692 159.4 936.959 158.92C937.239 158.427 937.379 157.887 937.379 157.3C937.379 156.713 937.239 156.18 936.959 155.7C936.692 155.207 936.319 154.82 935.839 154.54C935.372 154.247 934.832 154.1 934.219 154.1C933.606 154.1 933.059 154.247 932.579 154.54C932.099 154.82 931.719 155.207 931.439 155.7C931.159 156.18 931.019 156.713 931.019 157.3ZM954.365 165.5H947.285V149.08H954.365V151.5H954.265C954.398 151.207 954.665 150.833 955.065 150.38C955.478 149.927 956.052 149.52 956.785 149.16C957.532 148.787 958.458 148.6 959.565 148.6C960.312 148.6 961.018 148.72 961.685 148.96C962.352 149.2 962.838 149.433 963.145 149.66L960.425 155.4C960.252 155.147 959.925 154.893 959.445 154.64C958.965 154.373 958.372 154.24 957.665 154.24C956.865 154.24 956.218 154.42 955.725 154.78C955.245 155.127 954.898 155.56 954.685 156.08C954.472 156.6 954.365 157.1 954.365 157.58V165.5ZM969.959 158.72C970.012 159.16 970.185 159.547 970.479 159.88C970.785 160.2 971.185 160.453 971.679 160.64C972.185 160.813 972.779 160.9 973.459 160.9C974.125 160.9 974.752 160.853 975.339 160.76C975.925 160.653 976.445 160.513 976.899 160.34C977.365 160.167 977.732 159.973 977.999 159.76L980.619 164.16C980.325 164.413 979.885 164.68 979.299 164.96C978.712 165.24 977.905 165.48 976.879 165.68C975.865 165.88 974.565 165.98 972.979 165.98C971.139 165.98 969.485 165.653 968.019 165C966.552 164.347 965.392 163.367 964.539 162.06C963.685 160.74 963.259 159.093 963.259 157.12C963.259 155.52 963.619 154.08 964.339 152.8C965.059 151.507 966.099 150.487 967.459 149.74C968.819 148.98 970.465 148.6 972.399 148.6C974.252 148.6 975.859 148.927 977.219 149.58C978.579 150.22 979.625 151.193 980.359 152.5C981.092 153.807 981.459 155.46 981.459 157.46C981.459 157.567 981.452 157.78 981.439 158.1C981.439 158.42 981.425 158.627 981.399 158.72H969.959ZM974.799 155.52C974.785 155.08 974.685 154.687 974.499 154.34C974.325 153.993 974.072 153.72 973.739 153.52C973.405 153.32 972.999 153.22 972.519 153.22C972.052 153.22 971.639 153.313 971.279 153.5C970.919 153.687 970.639 153.953 970.439 154.3C970.239 154.633 970.125 155.04 970.099 155.52H974.799ZM1023.67 165.5H1015.37L1011.35 148.62H1012.57L1008.51 165.5H1000.19L993.971 139.1H1001.99L1004.83 156.32H1004.75L1009.43 139.1H1014.47L1019.15 156.32H1019.05L1021.91 139.1H1029.91L1023.67 165.5ZM1040.59 165.98C1038.75 165.98 1037.12 165.613 1035.69 164.88C1034.26 164.147 1033.14 163.133 1032.33 161.84C1031.52 160.533 1031.11 159.033 1031.11 157.34C1031.11 155.647 1031.52 154.147 1032.33 152.84C1033.14 151.52 1034.26 150.487 1035.69 149.74C1037.12 148.98 1038.75 148.6 1040.59 148.6C1042.42 148.6 1044.03 148.98 1045.43 149.74C1046.84 150.487 1047.94 151.52 1048.73 152.84C1049.53 154.147 1049.93 155.647 1049.93 157.34C1049.93 159.033 1049.53 160.533 1048.73 161.84C1047.94 163.133 1046.84 164.147 1045.43 164.88C1044.03 165.613 1042.42 165.98 1040.59 165.98ZM1040.59 160.2C1041.14 160.2 1041.61 160.087 1042.01 159.86C1042.41 159.62 1042.72 159.28 1042.93 158.84C1043.14 158.4 1043.25 157.887 1043.25 157.3C1043.25 156.727 1043.14 156.22 1042.93 155.78C1042.72 155.34 1042.41 155 1042.01 154.76C1041.61 154.507 1041.14 154.38 1040.59 154.38C1040.03 154.38 1039.55 154.507 1039.15 154.76C1038.75 155 1038.44 155.34 1038.21 155.78C1037.98 156.22 1037.87 156.727 1037.87 157.3C1037.87 157.887 1037.98 158.4 1038.21 158.84C1038.44 159.28 1038.75 159.62 1039.15 159.86C1039.55 160.087 1040.03 160.2 1040.59 160.2ZM1059.21 165.5H1052.13V149.08H1059.21V151.5H1059.11C1059.24 151.207 1059.51 150.833 1059.91 150.38C1060.32 149.927 1060.9 149.52 1061.63 149.16C1062.38 148.787 1063.3 148.6 1064.41 148.6C1065.16 148.6 1065.86 148.72 1066.53 148.96C1067.2 149.2 1067.68 149.433 1067.99 149.66L1065.27 155.4C1065.1 155.147 1064.77 154.893 1064.29 154.64C1063.81 154.373 1063.22 154.24 1062.51 154.24C1061.71 154.24 1061.06 154.42 1060.57 154.78C1060.09 155.127 1059.74 155.56 1059.53 156.08C1059.32 156.6 1059.21 157.1 1059.21 157.58V165.5ZM1081.05 149.08H1088.95L1081.47 156.92L1089.83 165.5H1081.73L1075.89 159.16V165.5H1068.81V137.98H1075.89V154.48L1081.05 149.08ZM1096.25 158.72C1096.3 159.16 1096.47 159.547 1096.77 159.88C1097.07 160.2 1097.47 160.453 1097.97 160.64C1098.47 160.813 1099.07 160.9 1099.75 160.9C1100.41 160.9 1101.04 160.853 1101.63 160.76C1102.21 160.653 1102.73 160.513 1103.19 160.34C1103.65 160.167 1104.02 159.973 1104.29 159.76L1106.91 164.16C1106.61 164.413 1106.17 164.68 1105.59 164.96C1105 165.24 1104.19 165.48 1103.17 165.68C1102.15 165.88 1100.85 165.98 1099.27 165.98C1097.43 165.98 1095.77 165.653 1094.31 165C1092.84 164.347 1091.68 163.367 1090.83 162.06C1089.97 160.74 1089.55 159.093 1089.55 157.12C1089.55 155.52 1089.91 154.08 1090.63 152.8C1091.35 151.507 1092.39 150.487 1093.75 149.74C1095.11 148.98 1096.75 148.6 1098.69 148.6C1100.54 148.6 1102.15 148.927 1103.51 149.58C1104.87 150.22 1105.91 151.193 1106.65 152.5C1107.38 153.807 1107.75 155.46 1107.75 157.46C1107.75 157.567 1107.74 157.78 1107.73 158.1C1107.73 158.42 1107.71 158.627 1107.69 158.72H1096.25ZM1101.09 155.52C1101.07 155.08 1100.97 154.687 1100.79 154.34C1100.61 153.993 1100.36 153.72 1100.03 153.52C1099.69 153.32 1099.29 153.22 1098.81 153.22C1098.34 153.22 1097.93 153.313 1097.57 153.5C1097.21 153.687 1096.93 153.953 1096.73 154.3C1096.53 154.633 1096.41 155.04 1096.39 155.52H1101.09ZM1117.02 165.5H1109.94V149.08H1117.02V151.5H1116.92C1117.05 151.207 1117.32 150.833 1117.72 150.38C1118.13 149.927 1118.71 149.52 1119.44 149.16C1120.19 148.787 1121.11 148.6 1122.22 148.6C1122.97 148.6 1123.67 148.72 1124.34 148.96C1125.01 149.2 1125.49 149.433 1125.8 149.66L1123.08 155.4C1122.91 155.147 1122.58 154.893 1122.1 154.64C1121.62 154.373 1121.03 154.24 1120.32 154.24C1119.52 154.24 1118.87 154.42 1118.38 154.78C1117.9 155.127 1117.55 155.56 1117.34 156.08C1117.13 156.6 1117.02 157.1 1117.02 157.58V165.5ZM1134.77 148.6C1135.92 148.6 1136.96 148.693 1137.91 148.88C1138.87 149.067 1139.66 149.273 1140.29 149.5C1140.93 149.713 1141.33 149.88 1141.49 150L1139.27 154.12C1139.03 153.947 1138.56 153.72 1137.87 153.44C1137.19 153.147 1136.44 153 1135.61 153C1135.06 153 1134.61 153.067 1134.25 153.2C1133.9 153.32 1133.73 153.533 1133.73 153.84C1133.73 154.133 1133.94 154.38 1134.35 154.58C1134.76 154.767 1135.39 154.933 1136.23 155.08C1136.99 155.227 1137.79 155.473 1138.63 155.82C1139.47 156.153 1140.18 156.667 1140.75 157.36C1141.34 158.04 1141.63 158.953 1141.63 160.1C1141.63 161.327 1141.36 162.327 1140.83 163.1C1140.3 163.86 1139.6 164.453 1138.73 164.88C1137.88 165.293 1136.95 165.58 1135.95 165.74C1134.96 165.9 1134.02 165.98 1133.11 165.98C1131.78 165.98 1130.62 165.86 1129.65 165.62C1128.68 165.393 1127.9 165.133 1127.31 164.84C1126.74 164.547 1126.34 164.32 1126.13 164.16L1128.31 159.58C1128.66 159.86 1129.22 160.18 1129.99 160.54C1130.78 160.9 1131.59 161.08 1132.43 161.08C1133.18 161.08 1133.74 161 1134.11 160.84C1134.5 160.667 1134.69 160.433 1134.69 160.14C1134.69 159.913 1134.6 159.727 1134.41 159.58C1134.22 159.433 1133.95 159.3 1133.59 159.18C1133.23 159.06 1132.78 158.947 1132.23 158.84C1131.74 158.747 1131.19 158.593 1130.59 158.38C1129.99 158.153 1129.42 157.84 1128.87 157.44C1128.34 157.04 1127.89 156.533 1127.53 155.92C1127.18 155.293 1127.01 154.533 1127.01 153.64C1127.01 152.493 1127.38 151.553 1128.13 150.82C1128.88 150.073 1129.84 149.52 1131.01 149.16C1132.2 148.787 1133.45 148.6 1134.77 148.6ZM1143.95 145.82C1143.95 144.5 1144.27 143.3 1144.91 142.22C1145.56 141.127 1146.43 140.253 1147.51 139.6C1148.59 138.947 1149.78 138.62 1151.09 138.62C1152.42 138.62 1153.63 138.947 1154.71 139.6C1155.8 140.253 1156.67 141.127 1157.31 142.22C1157.96 143.3 1158.29 144.5 1158.29 145.82C1158.29 147.127 1157.96 148.327 1157.31 149.42C1156.67 150.5 1155.8 151.36 1154.71 152C1153.63 152.64 1152.42 152.96 1151.09 152.96C1149.78 152.96 1148.59 152.64 1147.51 152C1146.43 151.36 1145.56 150.5 1144.91 149.42C1144.27 148.327 1143.95 147.127 1143.95 145.82ZM1146.13 145.82C1146.13 146.727 1146.35 147.56 1146.79 148.32C1147.24 149.067 1147.84 149.667 1148.59 150.12C1149.35 150.56 1150.18 150.78 1151.09 150.78C1152.02 150.78 1152.87 150.56 1153.63 150.12C1154.39 149.667 1154.99 149.067 1155.43 148.32C1155.88 147.56 1156.11 146.727 1156.11 145.82C1156.11 144.9 1155.88 144.06 1155.43 143.3C1154.99 142.54 1154.39 141.933 1153.63 141.48C1152.87 141.027 1152.02 140.8 1151.09 140.8C1150.18 140.8 1149.35 141.027 1148.59 141.48C1147.84 141.933 1147.24 142.54 1146.79 143.3C1146.35 144.06 1146.13 144.9 1146.13 145.82ZM1148.83 142.46H1151.25C1151.87 142.46 1152.39 142.627 1152.79 142.96C1153.2 143.293 1153.41 143.78 1153.41 144.42C1153.41 144.927 1153.27 145.34 1153.01 145.66C1152.75 145.967 1152.43 146.193 1152.03 146.34L1154.51 149.08H1152.39L1150.27 146.46H1150.45V149.08H1148.83V142.46ZM1150.45 145.32H1150.43C1150.68 145.32 1150.95 145.3 1151.23 145.26C1151.52 145.207 1151.67 144.973 1151.67 144.56C1151.67 144.133 1151.51 143.893 1151.21 143.84C1150.91 143.773 1150.65 143.74 1150.43 143.74H1150.45V145.32Z" fill="url(#paint2_linear_28_77)"/>
<defs>
<filter id="filter0_d_28_77" x="34" y="33.5" width="1432" height="87" filterUnits="userSpaceOnUse" color-interpolation-filters="sRGB">
<feFlood flood-opacity="0" result="BackgroundImageFix"/>
<feColorMatrix in="SourceAlpha" type="matrix" values="0 0 0 0 0 0 0 0 0 0 0 0 0 0 0 0 0 0 127 0" result="hardAlpha"/>
<feOffset/>
<feGaussianBlur stdDeviation="1.5"/>
<feComposite in2="hardAlpha" operator="out"/>
<feColorMatrix type="matrix" values="0 0 0 0 0 0 0 0 0 0 0 0 0 0 0 0 0 0 0.25 0"/>
<feBlend mode="normal" in2="BackgroundImageFix" result="effect1_dropShadow_28_77"/>
<feBlend mode="normal" in="SourceGraphic" in2="effect1_dropShadow_28_77" result="shape"/>
</filter>
<linearGradient id="paint0_linear_28_77" x1="750" y1="0" x2="750" y2="227" gradientUnits="userSpaceOnUse">
<stop stop-color="#641F01"/>
<stop offset="1" stop-color="#180B02"/>
</linearGradient>
<linearGradient id="paint1_linear_28_77" x1="750" y1="42.5" x2="750" y2="111.5" gradientUnits="userSpaceOnUse">
<stop stop-color="#FF9142"/>
<stop offset="1" stop-color="#B64303"/>
</linearGradient>
<linearGradient id="paint2_linear_28_77" x1="750" y1="137.5" x2="750" y2="164.5" gradientUnits="userSpaceOnUse">
<stop stop-color="white"/>
<stop offset="1" stop-color="#CDCDCD"/>
</linearGradient>
</defs>
</svg>
