<svg width="1500" height="227" viewBox="0 0 1500 227" fill="none" xmlns="http://www.w3.org/2000/svg">
<rect width="1500" height="227" rx="10" fill="url(#paint0_linear_28_33)"/>
<g filter="url(#filter0_d_28_33)">
<path d="M657.871 102.087C660.308 102.087 662.532 102.286 664.543 102.682C666.583 103.079 668.269 103.518 669.601 104C670.961 104.453 671.811 104.807 672.151 105.062L667.433 113.817C666.923 113.449 665.932 112.967 664.458 112.372C663.013 111.749 661.413 111.438 659.656 111.438C658.494 111.438 657.531 111.579 656.766 111.862C656.029 112.117 655.661 112.571 655.661 113.222C655.661 113.846 656.1 114.37 656.978 114.795C657.857 115.192 659.188 115.546 660.973 115.857C662.588 116.169 664.288 116.693 666.073 117.43C667.858 118.138 669.36 119.229 670.578 120.702C671.825 122.147 672.448 124.088 672.448 126.525C672.448 129.132 671.882 131.257 670.748 132.9C669.615 134.515 668.128 135.776 666.286 136.682C664.473 137.561 662.503 138.17 660.378 138.51C658.282 138.85 656.27 139.02 654.343 139.02C651.51 139.02 649.059 138.765 646.991 138.255C644.923 137.773 643.265 137.221 642.018 136.598C640.8 135.974 639.964 135.492 639.511 135.152L644.143 125.42C644.88 126.015 646.07 126.695 647.713 127.46C649.385 128.225 651.113 128.607 652.898 128.607C654.485 128.607 655.675 128.437 656.468 128.097C657.29 127.729 657.701 127.233 657.701 126.61C657.701 126.128 657.503 125.732 657.106 125.42C656.709 125.108 656.128 124.825 655.363 124.57C654.598 124.315 653.635 124.074 652.473 123.847C651.425 123.649 650.263 123.323 648.988 122.87C647.713 122.388 646.495 121.722 645.333 120.872C644.2 120.022 643.251 118.946 642.486 117.642C641.749 116.311 641.381 114.696 641.381 112.797C641.381 110.361 642.174 108.363 643.761 106.805C645.348 105.218 647.388 104.042 649.881 103.277C652.403 102.484 655.066 102.087 657.871 102.087ZM704.7 102.087C707.222 102.087 709.658 102.583 712.01 103.575C714.39 104.567 716.345 106.153 717.875 108.335C719.433 110.517 720.212 113.364 720.212 116.877V138H705.167V119.3C705.167 117.175 704.7 115.546 703.765 114.412C702.858 113.251 701.555 112.67 699.855 112.67C698.75 112.67 697.687 112.953 696.667 113.52C695.647 114.087 694.826 114.88 694.202 115.9C693.579 116.92 693.267 118.11 693.267 119.47V138H678.222V79.52H693.267V107.825C693.607 106.89 694.316 105.997 695.392 105.147C696.497 104.269 697.857 103.547 699.472 102.98C701.087 102.385 702.83 102.087 704.7 102.087ZM745.361 139.02C741.451 139.02 737.98 138.241 734.948 136.682C731.916 135.124 729.536 132.971 727.808 130.222C726.08 127.446 725.216 124.258 725.216 120.66C725.216 117.062 726.08 113.874 727.808 111.097C729.536 108.292 731.916 106.097 734.948 104.51C737.98 102.895 741.451 102.087 745.361 102.087C749.242 102.087 752.671 102.895 755.646 104.51C758.649 106.097 760.986 108.292 762.658 111.097C764.358 113.874 765.208 117.062 765.208 120.66C765.208 124.258 764.358 127.446 762.658 130.222C760.986 132.971 758.649 135.124 755.646 136.682C752.671 138.241 749.242 139.02 745.361 139.02ZM745.361 126.737C746.522 126.737 747.528 126.497 748.378 126.015C749.228 125.505 749.88 124.782 750.333 123.847C750.786 122.912 751.013 121.822 751.013 120.575C751.013 119.357 750.786 118.28 750.333 117.345C749.88 116.41 749.228 115.687 748.378 115.177C747.528 114.639 746.522 114.37 745.361 114.37C744.171 114.37 743.151 114.639 742.301 115.177C741.451 115.687 740.785 116.41 740.303 117.345C739.821 118.28 739.581 119.357 739.581 120.575C739.581 121.822 739.821 122.912 740.303 123.847C740.785 124.782 741.451 125.505 742.301 126.015C743.151 126.497 744.171 126.737 745.361 126.737ZM784.925 138H769.88V103.107H784.925V108.25H784.712C784.996 107.627 785.562 106.833 786.412 105.87C787.291 104.907 788.509 104.042 790.067 103.277C791.654 102.484 793.623 102.087 795.975 102.087C797.561 102.087 799.063 102.342 800.48 102.852C801.896 103.362 802.931 103.858 803.582 104.34L797.802 116.538C797.434 115.999 796.74 115.461 795.72 114.922C794.7 114.356 793.439 114.072 791.937 114.072C790.237 114.072 788.863 114.455 787.815 115.22C786.795 115.957 786.058 116.877 785.605 117.982C785.151 119.087 784.925 120.15 784.925 121.17V138ZM804.75 103.107H810.36V88.785H825.235V103.107H832.63V115.39H825.235V122.19C825.235 123.408 825.39 124.457 825.702 125.335C826.042 126.185 826.75 126.61 827.827 126.61C828.479 126.61 829.06 126.468 829.57 126.185C830.08 125.873 830.391 125.661 830.505 125.547L835.52 136.172C835.293 136.342 834.599 136.668 833.437 137.15C832.304 137.603 830.859 138.028 829.102 138.425C827.374 138.822 825.447 139.02 823.322 139.02C819.554 139.02 816.451 137.986 814.015 135.917C811.578 133.821 810.36 130.605 810.36 126.27V115.39H804.75V103.107ZM848.65 139.02C846.327 139.02 844.329 138.198 842.658 136.555C841.014 134.883 840.193 132.886 840.193 130.562C840.193 128.182 841.014 126.171 842.658 124.527C844.329 122.856 846.327 122.02 848.65 122.02C851.002 122.02 852.999 122.856 854.643 124.527C856.314 126.171 857.15 128.182 857.15 130.562C857.15 132.886 856.314 134.883 854.643 136.555C852.999 138.198 851.002 139.02 848.65 139.02Z" fill="url(#paint1_linear_28_33)"/>
</g>
<defs>
<filter id="filter0_d_28_33" x="34" y="70" width="1432" height="87" filterUnits="userSpaceOnUse" color-interpolation-filters="sRGB">
<feFlood flood-opacity="0" result="BackgroundImageFix"/>
<feColorMatrix in="SourceAlpha" type="matrix" values="0 0 0 0 0 0 0 0 0 0 0 0 0 0 0 0 0 0 127 0" result="hardAlpha"/>
<feOffset/>
<feGaussianBlur stdDeviation="1.5"/>
<feComposite in2="hardAlpha" operator="out"/>
<feColorMatrix type="matrix" values="0 0 0 0 0 0 0 0 0 0 0 0 0 0 0 0 0 0 0.25 0"/>
<feBlend mode="normal" in2="BackgroundImageFix" result="effect1_dropShadow_28_33"/>
<feBlend mode="normal" in="SourceGraphic" in2="effect1_dropShadow_28_33" result="shape"/>
</filter>
<linearGradient id="paint0_linear_28_33" x1="750" y1="0" x2="750" y2="227" gradientUnits="userSpaceOnUse">
<stop stop-color="#641F01"/>
<stop offset="1" stop-color="#180B02"/>
</linearGradient>
<linearGradient id="paint1_linear_28_33" x1="750" y1="79" x2="750" y2="148" gradientUnits="userSpaceOnUse">
<stop stop-color="#FF9142"/>
<stop offset="1" stop-color="#B64303"/>
</linearGradient>
</defs>
</svg>
