<svg width="100" height="100" viewBox="0 0 100 100" fill="none" xmlns="http://www.w3.org/2000/svg">
<g clip-path="url(#clip0_28_16)">
<circle cx="50" cy="50" r="50" fill="url(#paint0_linear_28_16)"/>
<circle cx="50" cy="50" r="48" stroke="white" stroke-opacity="0.15" stroke-width="4"/>
<g filter="url(#filter0_d_28_16)">
<path d="M51.3884 29.68C53.9484 29.68 56.2184 29.96 58.1984 30.52C60.1984 31.06 61.8084 31.64 63.0284 32.26C64.2684 32.88 65.0284 33.3 65.3084 33.52L59.8184 42.82C59.4984 42.58 58.9384 42.25 58.1384 41.83C57.3584 41.39 56.4784 41 55.4984 40.66C54.5184 40.32 53.5784 40.15 52.6784 40.15C51.6184 40.15 50.7384 40.3 50.0384 40.6C49.3384 40.88 48.9884 41.37 48.9884 42.07C48.9884 42.55 49.1784 42.99 49.5584 43.39C49.9384 43.79 50.5784 44.2 51.4784 44.62C52.3984 45.04 53.6484 45.52 55.2284 46.06C56.7684 46.56 58.1784 47.18 59.4584 47.92C60.7384 48.66 61.8384 49.54 62.7584 50.56C63.6984 51.58 64.4284 52.75 64.9484 54.07C65.4684 55.39 65.7284 56.88 65.7284 58.54C65.7284 60.74 65.2684 62.62 64.3484 64.18C63.4484 65.72 62.2384 66.97 60.7184 67.93C59.1984 68.89 57.4984 69.59 55.6184 70.03C53.7584 70.49 51.8684 70.72 49.9484 70.72C47.0084 70.72 44.3884 70.4 42.0884 69.76C39.8084 69.12 37.9584 68.43 36.5384 67.69C35.1384 66.93 34.2784 66.39 33.9584 66.07L39.6284 56.38C39.8484 56.56 40.3184 56.85 41.0384 57.25C41.7784 57.65 42.6584 58.07 43.6784 58.51C44.7184 58.95 45.7884 59.33 46.8884 59.65C47.9884 59.95 49.0084 60.1 49.9484 60.1C51.2084 60.1 52.1384 59.92 52.7384 59.56C53.3384 59.2 53.6384 58.68 53.6384 58C53.6384 57.52 53.4484 57.07 53.0684 56.65C52.7084 56.23 52.0484 55.79 51.0884 55.33C50.1484 54.85 48.8084 54.3 47.0684 53.68C45.3884 53.06 43.7884 52.25 42.2684 51.25C40.7484 50.25 39.5084 48.95 38.5484 47.35C37.5884 45.75 37.1084 43.75 37.1084 41.35C37.1084 38.91 37.7884 36.82 39.1484 35.08C40.5084 33.34 42.2784 32.01 44.4584 31.09C46.6384 30.15 48.9484 29.68 51.3884 29.68Z" fill="url(#paint1_linear_28_16)"/>
</g>
</g>
<defs>
<filter id="filter0_d_28_16" x="13" y="13" width="74" height="74" filterUnits="userSpaceOnUse" color-interpolation-filters="sRGB">
<feFlood flood-opacity="0" result="BackgroundImageFix"/>
<feColorMatrix in="SourceAlpha" type="matrix" values="0 0 0 0 0 0 0 0 0 0 0 0 0 0 0 0 0 0 127 0" result="hardAlpha"/>
<feOffset/>
<feGaussianBlur stdDeviation="1.5"/>
<feComposite in2="hardAlpha" operator="out"/>
<feColorMatrix type="matrix" values="0 0 0 0 0 0 0 0 0 0 0 0 0 0 0 0 0 0 0.25 0"/>
<feBlend mode="normal" in2="BackgroundImageFix" result="effect1_dropShadow_28_16"/>
<feBlend mode="normal" in="SourceGraphic" in2="effect1_dropShadow_28_16" result="shape"/>
</filter>
<linearGradient id="paint0_linear_28_16" x1="50" y1="0" x2="50" y2="100" gradientUnits="userSpaceOnUse">
<stop stop-color="#641F01"/>
<stop offset="1" stop-color="#180B02"/>
</linearGradient>
<linearGradient id="paint1_linear_28_16" x1="51" y1="28" x2="51" y2="72" gradientUnits="userSpaceOnUse">
<stop stop-color="#FF9142"/>
<stop offset="1" stop-color="#B64303"/>
</linearGradient>
<clipPath id="clip0_28_16">
<rect width="100" height="100" fill="white"/>
</clipPath>
</defs>
</svg>
