<svg width="1500" height="227" viewBox="0 0 1500 227" fill="none" xmlns="http://www.w3.org/2000/svg">
<rect width="1500" height="227" rx="10" fill="url(#paint0_linear_28_61)"/>
<g filter="url(#filter0_d_28_61)">
<path d="M657.871 65.5875C660.308 65.5875 662.532 65.7858 664.543 66.1825C666.583 66.5792 668.269 67.0183 669.601 67.5C670.961 67.9533 671.811 68.3075 672.151 68.5625L667.433 77.3175C666.923 76.9492 665.932 76.4675 664.458 75.8725C663.013 75.2492 661.413 74.9375 659.656 74.9375C658.494 74.9375 657.531 75.0792 656.766 75.3625C656.029 75.6175 655.661 76.0708 655.661 76.7225C655.661 77.3458 656.1 77.87 656.978 78.295C657.857 78.6917 659.188 79.0458 660.973 79.3575C662.588 79.6692 664.288 80.1933 666.073 80.93C667.858 81.6383 669.36 82.7292 670.578 84.2025C671.825 85.6475 672.448 87.5883 672.448 90.025C672.448 92.6317 671.882 94.7567 670.748 96.4C669.615 98.015 668.128 99.2758 666.286 100.182C664.473 101.061 662.503 101.67 660.378 102.01C658.282 102.35 656.27 102.52 654.343 102.52C651.51 102.52 649.059 102.265 646.991 101.755C644.923 101.273 643.265 100.721 642.018 100.098C640.8 99.4742 639.964 98.9925 639.511 98.6525L644.143 88.92C644.88 89.515 646.07 90.195 647.713 90.96C649.385 91.725 651.113 92.1075 652.898 92.1075C654.485 92.1075 655.675 91.9375 656.468 91.5975C657.29 91.2292 657.701 90.7333 657.701 90.11C657.701 89.6283 657.503 89.2317 657.106 88.92C656.709 88.6083 656.128 88.325 655.363 88.07C654.598 87.815 653.635 87.5742 652.473 87.3475C651.425 87.1492 650.263 86.8233 648.988 86.37C647.713 85.8883 646.495 85.2225 645.333 84.3725C644.2 83.5225 643.251 82.4458 642.486 81.1425C641.749 79.8108 641.381 78.1958 641.381 76.2975C641.381 73.8608 642.174 71.8633 643.761 70.305C645.348 68.7183 647.388 67.5425 649.881 66.7775C652.403 65.9842 655.066 65.5875 657.871 65.5875ZM704.7 65.5875C707.222 65.5875 709.658 66.0833 712.01 67.075C714.39 68.0667 716.345 69.6533 717.875 71.835C719.433 74.0167 720.212 76.8642 720.212 80.3775V101.5H705.167V82.8C705.167 80.675 704.7 79.0458 703.765 77.9125C702.858 76.7508 701.555 76.17 699.855 76.17C698.75 76.17 697.687 76.4533 696.667 77.02C695.647 77.5867 694.826 78.38 694.202 79.4C693.579 80.42 693.267 81.61 693.267 82.97V101.5H678.222V43.02H693.267V71.325C693.607 70.39 694.316 69.4975 695.392 68.6475C696.497 67.7692 697.857 67.0467 699.472 66.48C701.087 65.885 702.83 65.5875 704.7 65.5875ZM745.361 102.52C741.451 102.52 737.98 101.741 734.948 100.182C731.916 98.6242 729.536 96.4708 727.808 93.7225C726.08 90.9458 725.216 87.7583 725.216 84.16C725.216 80.5617 726.08 77.3742 727.808 74.5975C729.536 71.7925 731.916 69.5967 734.948 68.01C737.98 66.395 741.451 65.5875 745.361 65.5875C749.242 65.5875 752.671 66.395 755.646 68.01C758.649 69.5967 760.986 71.7925 762.658 74.5975C764.358 77.3742 765.208 80.5617 765.208 84.16C765.208 87.7583 764.358 90.9458 762.658 93.7225C760.986 96.4708 758.649 98.6242 755.646 100.182C752.671 101.741 749.242 102.52 745.361 102.52ZM745.361 90.2375C746.522 90.2375 747.528 89.9967 748.378 89.515C749.228 89.005 749.88 88.2825 750.333 87.3475C750.786 86.4125 751.013 85.3217 751.013 84.075C751.013 82.8567 750.786 81.78 750.333 80.845C749.88 79.91 749.228 79.1875 748.378 78.6775C747.528 78.1392 746.522 77.87 745.361 77.87C744.171 77.87 743.151 78.1392 742.301 78.6775C741.451 79.1875 740.785 79.91 740.303 80.845C739.821 81.78 739.581 82.8567 739.581 84.075C739.581 85.3217 739.821 86.4125 740.303 87.3475C740.785 88.2825 741.451 89.005 742.301 89.515C743.151 89.9967 744.171 90.2375 745.361 90.2375ZM784.925 101.5H769.88V66.6075H784.925V71.75H784.712C784.996 71.1267 785.562 70.3333 786.412 69.37C787.291 68.4067 788.509 67.5425 790.067 66.7775C791.654 65.9842 793.623 65.5875 795.975 65.5875C797.561 65.5875 799.063 65.8425 800.48 66.3525C801.896 66.8625 802.931 67.3583 803.582 67.84L797.802 80.0375C797.434 79.4992 796.74 78.9608 795.72 78.4225C794.7 77.8558 793.439 77.5725 791.937 77.5725C790.237 77.5725 788.863 77.955 787.815 78.72C786.795 79.4567 786.058 80.3775 785.605 81.4825C785.151 82.5875 784.925 83.65 784.925 84.67V101.5ZM804.75 66.6075H810.36V52.285H825.235V66.6075H832.63V78.89H825.235V85.69C825.235 86.9083 825.39 87.9567 825.702 88.835C826.042 89.685 826.75 90.11 827.827 90.11C828.479 90.11 829.06 89.9683 829.57 89.685C830.08 89.3733 830.391 89.1608 830.505 89.0475L835.52 99.6725C835.293 99.8425 834.599 100.168 833.437 100.65C832.304 101.103 830.859 101.528 829.102 101.925C827.374 102.322 825.447 102.52 823.322 102.52C819.554 102.52 816.451 101.486 814.015 99.4175C811.578 97.3208 810.36 94.105 810.36 89.77V78.89H804.75V66.6075ZM848.65 102.52C846.327 102.52 844.329 101.698 842.658 100.055C841.014 98.3833 840.193 96.3858 840.193 94.0625C840.193 91.6825 841.014 89.6708 842.658 88.0275C844.329 86.3558 846.327 85.52 848.65 85.52C851.002 85.52 852.999 86.3558 854.643 88.0275C856.314 89.6708 857.15 91.6825 857.15 94.0625C857.15 96.3858 856.314 98.3833 854.643 100.055C852.999 101.698 851.002 102.52 848.65 102.52Z" fill="url(#paint1_linear_28_61)"/>
</g>
<path d="M320.667 138.62C322.334 138.62 323.807 138.807 325.087 139.18C326.38 139.54 327.42 139.927 328.207 140.34C328.994 140.74 329.474 141.007 329.647 141.14L326.327 146.74C326.114 146.567 325.747 146.333 325.227 146.04C324.707 145.747 324.107 145.487 323.427 145.26C322.76 145.02 322.094 144.9 321.427 144.9C320.574 144.9 319.874 145.04 319.327 145.32C318.794 145.587 318.527 146.007 318.527 146.58C318.527 146.98 318.674 147.34 318.967 147.66C319.26 147.98 319.727 148.3 320.367 148.62C321.02 148.94 321.88 149.287 322.947 149.66C323.947 150.007 324.874 150.427 325.727 150.92C326.594 151.413 327.347 152 327.987 152.68C328.627 153.36 329.127 154.14 329.487 155.02C329.86 155.9 330.047 156.893 330.047 158C330.047 159.413 329.754 160.627 329.167 161.64C328.594 162.64 327.814 163.46 326.827 164.1C325.854 164.74 324.754 165.213 323.527 165.52C322.3 165.827 321.047 165.98 319.767 165.98C317.874 165.98 316.18 165.773 314.687 165.36C313.207 164.933 312.007 164.473 311.087 163.98C310.18 163.487 309.634 163.147 309.447 162.96L312.867 157.14C313.014 157.26 313.327 157.453 313.807 157.72C314.287 157.987 314.86 158.267 315.527 158.56C316.207 158.853 316.92 159.1 317.667 159.3C318.414 159.5 319.12 159.6 319.787 159.6C320.8 159.6 321.554 159.433 322.047 159.1C322.54 158.753 322.787 158.28 322.787 157.68C322.787 157.24 322.634 156.847 322.327 156.5C322.02 156.14 321.52 155.787 320.827 155.44C320.134 155.08 319.207 154.68 318.047 154.24C316.9 153.8 315.82 153.253 314.807 152.6C313.807 151.933 312.987 151.08 312.347 150.04C311.72 149 311.407 147.707 311.407 146.16C311.407 144.6 311.84 143.26 312.707 142.14C313.587 141.007 314.734 140.14 316.147 139.54C317.56 138.927 319.067 138.62 320.667 138.62ZM333.598 165.5V149.08H340.658V165.5H333.598ZM337.217 146.56C336.138 146.56 335.218 146.18 334.458 145.42C333.711 144.66 333.338 143.753 333.338 142.7C333.338 141.647 333.711 140.733 334.458 139.96C335.218 139.187 336.138 138.8 337.217 138.8C337.924 138.8 338.571 138.98 339.158 139.34C339.744 139.687 340.218 140.153 340.578 140.74C340.938 141.327 341.118 141.98 341.118 142.7C341.118 143.753 340.731 144.66 339.958 145.42C339.198 146.18 338.284 146.56 337.217 146.56ZM368.114 148.6C369.367 148.6 370.481 148.853 371.454 149.36C372.441 149.867 373.214 150.653 373.774 151.72C374.347 152.773 374.634 154.14 374.634 155.82V165.5H367.674V156.82C367.674 155.913 367.527 155.147 367.234 154.52C366.954 153.893 366.354 153.58 365.434 153.58C364.847 153.58 364.354 153.727 363.954 154.02C363.554 154.313 363.254 154.707 363.054 155.2C362.867 155.68 362.774 156.22 362.774 156.82V165.5H356.294V156.82C356.294 155.913 356.147 155.147 355.854 154.52C355.574 153.893 354.981 153.58 354.074 153.58C353.487 153.58 352.994 153.727 352.594 154.02C352.194 154.3 351.894 154.687 351.694 155.18C351.494 155.66 351.394 156.207 351.394 156.82V165.5H344.374V149.08H351.394V151.36C351.554 150.947 351.914 150.527 352.474 150.1C353.047 149.673 353.734 149.32 354.534 149.04C355.347 148.747 356.194 148.6 357.074 148.6C358.047 148.6 358.854 148.72 359.494 148.96C360.147 149.2 360.687 149.54 361.114 149.98C361.554 150.42 361.921 150.927 362.214 151.5C362.401 151.06 362.774 150.62 363.334 150.18C363.894 149.727 364.594 149.353 365.434 149.06C366.274 148.753 367.167 148.6 368.114 148.6ZM384.596 173.82H377.596V149.08H384.656V151.22C384.87 150.86 385.23 150.48 385.736 150.08C386.256 149.667 386.91 149.32 387.696 149.04C388.483 148.747 389.363 148.6 390.336 148.6C391.963 148.6 393.336 149.007 394.456 149.82C395.59 150.62 396.45 151.68 397.036 153C397.636 154.32 397.936 155.753 397.936 157.3C397.936 158.847 397.616 160.28 396.976 161.6C396.336 162.92 395.43 163.98 394.256 164.78C393.083 165.58 391.683 165.98 390.056 165.98C388.95 165.98 388.01 165.793 387.236 165.42C386.476 165.033 385.876 164.607 385.436 164.14C385.01 163.66 384.73 163.293 384.596 163.04V173.82ZM391.016 157.3C391.016 156.713 390.876 156.18 390.596 155.7C390.33 155.207 389.956 154.82 389.476 154.54C388.996 154.247 388.456 154.1 387.856 154.1C387.23 154.1 386.676 154.247 386.196 154.54C385.716 154.82 385.336 155.207 385.056 155.7C384.79 156.18 384.656 156.713 384.656 157.3C384.656 157.887 384.79 158.427 385.056 158.92C385.336 159.4 385.716 159.78 386.196 160.06C386.676 160.34 387.23 160.48 387.856 160.48C388.456 160.48 388.996 160.34 389.476 160.06C389.956 159.78 390.33 159.4 390.596 158.92C390.876 158.427 391.016 157.887 391.016 157.3ZM407.782 165.5H400.682V137.98H407.782V165.5ZM417.15 158.72C417.203 159.16 417.377 159.547 417.67 159.88C417.977 160.2 418.377 160.453 418.87 160.64C419.377 160.813 419.97 160.9 420.65 160.9C421.317 160.9 421.943 160.853 422.53 160.76C423.117 160.653 423.637 160.513 424.09 160.34C424.557 160.167 424.923 159.973 425.19 159.76L427.81 164.16C427.517 164.413 427.077 164.68 426.49 164.96C425.903 165.24 425.097 165.48 424.07 165.68C423.057 165.88 421.757 165.98 420.17 165.98C418.33 165.98 416.677 165.653 415.21 165C413.743 164.347 412.583 163.367 411.73 162.06C410.877 160.74 410.45 159.093 410.45 157.12C410.45 155.52 410.81 154.08 411.53 152.8C412.25 151.507 413.29 150.487 414.65 149.74C416.01 148.98 417.657 148.6 419.59 148.6C421.443 148.6 423.05 148.927 424.41 149.58C425.77 150.22 426.817 151.193 427.55 152.5C428.283 153.807 428.65 155.46 428.65 157.46C428.65 157.567 428.643 157.78 428.63 158.1C428.63 158.42 428.617 158.627 428.59 158.72H417.15ZM421.99 155.52C421.977 155.08 421.877 154.687 421.69 154.34C421.517 153.993 421.263 153.72 420.93 153.52C420.597 153.32 420.19 153.22 419.71 153.22C419.243 153.22 418.83 153.313 418.47 153.5C418.11 153.687 417.83 153.953 417.63 154.3C417.43 154.633 417.317 155.04 417.29 155.52H421.99ZM449.423 165.5H442.323V137.98H449.423V165.5ZM453.051 165.5V149.08H460.111V165.5H453.051ZM456.671 146.56C455.591 146.56 454.671 146.18 453.911 145.42C453.164 144.66 452.791 143.753 452.791 142.7C452.791 141.647 453.164 140.733 453.911 139.96C454.671 139.187 455.591 138.8 456.671 138.8C457.377 138.8 458.024 138.98 458.611 139.34C459.197 139.687 459.671 140.153 460.031 140.74C460.391 141.327 460.571 141.98 460.571 142.7C460.571 143.753 460.184 144.66 459.411 145.42C458.651 146.18 457.737 146.56 456.671 146.56ZM475.987 148.6C477.174 148.6 478.327 148.833 479.447 149.3C480.567 149.767 481.487 150.513 482.207 151.54C482.941 152.567 483.307 153.907 483.307 155.56V165.5H476.207V156.7C476.207 155.7 475.967 154.933 475.487 154.4C475.007 153.853 474.367 153.58 473.567 153.58C473.047 153.58 472.561 153.713 472.107 153.98C471.654 154.247 471.287 154.62 471.007 155.1C470.741 155.58 470.607 156.14 470.607 156.78V165.5H463.527V149.08H470.607V151.3C470.781 150.86 471.121 150.44 471.627 150.04C472.134 149.627 472.767 149.287 473.527 149.02C474.287 148.74 475.107 148.6 475.987 148.6ZM498.125 149.08H506.025L498.545 156.92L506.905 165.5H498.805L492.965 159.16V165.5H485.885V137.98H492.965V154.48L498.125 149.08ZM526.923 148.6C528.069 148.6 529.116 148.693 530.062 148.88C531.023 149.067 531.816 149.273 532.443 149.5C533.083 149.713 533.483 149.88 533.643 150L531.423 154.12C531.183 153.947 530.716 153.72 530.023 153.44C529.343 153.147 528.589 153 527.763 153C527.216 153 526.763 153.067 526.403 153.2C526.056 153.32 525.883 153.533 525.883 153.84C525.883 154.133 526.089 154.38 526.503 154.58C526.916 154.767 527.543 154.933 528.383 155.08C529.143 155.227 529.943 155.473 530.783 155.82C531.623 156.153 532.329 156.667 532.903 157.36C533.489 158.04 533.783 158.953 533.783 160.1C533.783 161.327 533.516 162.327 532.983 163.1C532.449 163.86 531.749 164.453 530.883 164.88C530.029 165.293 529.103 165.58 528.103 165.74C527.116 165.9 526.169 165.98 525.263 165.98C523.929 165.98 522.776 165.86 521.803 165.62C520.829 165.393 520.049 165.133 519.463 164.84C518.889 164.547 518.496 164.32 518.283 164.16L520.463 159.58C520.809 159.86 521.369 160.18 522.143 160.54C522.929 160.9 523.743 161.08 524.583 161.08C525.329 161.08 525.889 161 526.263 160.84C526.649 160.667 526.843 160.433 526.843 160.14C526.843 159.913 526.749 159.727 526.563 159.58C526.376 159.433 526.103 159.3 525.743 159.18C525.383 159.06 524.929 158.947 524.383 158.84C523.889 158.747 523.343 158.593 522.743 158.38C522.143 158.153 521.569 157.84 521.023 157.44C520.489 157.04 520.043 156.533 519.683 155.92C519.336 155.293 519.163 154.533 519.163 153.64C519.163 152.493 519.536 151.553 520.283 150.82C521.029 150.073 521.989 149.52 523.163 149.16C524.349 148.787 525.603 148.6 526.923 148.6ZM548.96 148.6C550.146 148.6 551.293 148.833 552.4 149.3C553.52 149.767 554.44 150.513 555.16 151.54C555.893 152.567 556.26 153.907 556.26 155.56V165.5H549.18V156.7C549.18 155.7 548.96 154.933 548.52 154.4C548.093 153.853 547.48 153.58 546.68 153.58C546.16 153.58 545.66 153.713 545.18 153.98C544.7 154.247 544.313 154.62 544.02 155.1C543.726 155.58 543.58 156.14 543.58 156.78V165.5H536.5V137.98H543.58V151.3C543.74 150.86 544.073 150.44 544.58 150.04C545.1 149.627 545.74 149.287 546.5 149.02C547.26 148.74 548.08 148.6 548.96 148.6ZM568.094 165.98C566.254 165.98 564.621 165.613 563.194 164.88C561.767 164.147 560.647 163.133 559.834 161.84C559.021 160.533 558.614 159.033 558.614 157.34C558.614 155.647 559.021 154.147 559.834 152.84C560.647 151.52 561.767 150.487 563.194 149.74C564.621 148.98 566.254 148.6 568.094 148.6C569.921 148.6 571.534 148.98 572.934 149.74C574.347 150.487 575.447 151.52 576.234 152.84C577.034 154.147 577.434 155.647 577.434 157.34C577.434 159.033 577.034 160.533 576.234 161.84C575.447 163.133 574.347 164.147 572.934 164.88C571.534 165.613 569.921 165.98 568.094 165.98ZM568.094 160.2C568.641 160.2 569.114 160.087 569.514 159.86C569.914 159.62 570.221 159.28 570.434 158.84C570.647 158.4 570.754 157.887 570.754 157.3C570.754 156.727 570.647 156.22 570.434 155.78C570.221 155.34 569.914 155 569.514 154.76C569.114 154.507 568.641 154.38 568.094 154.38C567.534 154.38 567.054 154.507 566.654 154.76C566.254 155 565.941 155.34 565.714 155.78C565.487 156.22 565.374 156.727 565.374 157.3C565.374 157.887 565.487 158.4 565.714 158.84C565.941 159.28 566.254 159.62 566.654 159.86C567.054 160.087 567.534 160.2 568.094 160.2ZM586.713 165.5H579.633V149.08H586.713V151.5H586.613C586.746 151.207 587.013 150.833 587.413 150.38C587.826 149.927 588.399 149.52 589.133 149.16C589.879 148.787 590.806 148.6 591.913 148.6C592.659 148.6 593.366 148.72 594.033 148.96C594.699 149.2 595.186 149.433 595.493 149.66L592.773 155.4C592.599 155.147 592.273 154.893 591.793 154.64C591.313 154.373 590.719 154.24 590.013 154.24C589.213 154.24 588.566 154.42 588.073 154.78C587.593 155.127 587.246 155.56 587.033 156.08C586.819 156.6 586.713 157.1 586.713 157.58V165.5ZM596.042 149.08H598.682V142.34H605.682V149.08H609.162V154.86H605.682V158.06C605.682 158.633 605.755 159.127 605.902 159.54C606.062 159.94 606.395 160.14 606.902 160.14C607.209 160.14 607.482 160.073 607.722 159.94C607.962 159.793 608.109 159.693 608.162 159.64L610.522 164.64C610.415 164.72 610.089 164.873 609.542 165.1C609.009 165.313 608.329 165.513 607.502 165.7C606.689 165.887 605.782 165.98 604.782 165.98C603.009 165.98 601.549 165.493 600.402 164.52C599.255 163.533 598.682 162.02 598.682 159.98V154.86H596.042V149.08ZM618.361 158.72C618.414 159.16 618.588 159.547 618.881 159.88C619.188 160.2 619.588 160.453 620.081 160.64C620.588 160.813 621.181 160.9 621.861 160.9C622.528 160.9 623.154 160.853 623.741 160.76C624.328 160.653 624.848 160.513 625.301 160.34C625.768 160.167 626.134 159.973 626.401 159.76L629.021 164.16C628.728 164.413 628.288 164.68 627.701 164.96C627.114 165.24 626.308 165.48 625.281 165.68C624.268 165.88 622.968 165.98 621.381 165.98C619.541 165.98 617.888 165.653 616.421 165C614.954 164.347 613.794 163.367 612.941 162.06C612.088 160.74 611.661 159.093 611.661 157.12C611.661 155.52 612.021 154.08 612.741 152.8C613.461 151.507 614.501 150.487 615.861 149.74C617.221 148.98 618.868 148.6 620.801 148.6C622.654 148.6 624.261 148.927 625.621 149.58C626.981 150.22 628.028 151.193 628.761 152.5C629.494 153.807 629.861 155.46 629.861 157.46C629.861 157.567 629.854 157.78 629.841 158.1C629.841 158.42 629.828 158.627 629.801 158.72H618.361ZM623.201 155.52C623.188 155.08 623.088 154.687 622.901 154.34C622.728 153.993 622.474 153.72 622.141 153.52C621.808 153.32 621.401 153.22 620.921 153.22C620.454 153.22 620.041 153.313 619.681 153.5C619.321 153.687 619.041 153.953 618.841 154.3C618.641 154.633 618.528 155.04 618.501 155.52H623.201ZM644.854 148.6C646.041 148.6 647.194 148.833 648.314 149.3C649.434 149.767 650.354 150.513 651.074 151.54C651.808 152.567 652.174 153.907 652.174 155.56V165.5H645.074V156.7C645.074 155.7 644.834 154.933 644.354 154.4C643.874 153.853 643.234 153.58 642.434 153.58C641.914 153.58 641.428 153.713 640.974 153.98C640.521 154.247 640.154 154.62 639.874 155.1C639.608 155.58 639.474 156.14 639.474 156.78V165.5H632.394V149.08H639.474V151.3C639.648 150.86 639.988 150.44 640.494 150.04C641.001 149.627 641.634 149.287 642.394 149.02C643.154 148.74 643.974 148.6 644.854 148.6ZM661.213 158.72C661.266 159.16 661.439 159.547 661.733 159.88C662.039 160.2 662.439 160.453 662.933 160.64C663.439 160.813 664.033 160.9 664.713 160.9C665.379 160.9 666.006 160.853 666.593 160.76C667.179 160.653 667.699 160.513 668.153 160.34C668.619 160.167 668.986 159.973 669.253 159.76L671.873 164.16C671.579 164.413 671.139 164.68 670.553 164.96C669.966 165.24 669.159 165.48 668.133 165.68C667.119 165.88 665.819 165.98 664.233 165.98C662.393 165.98 660.739 165.653 659.273 165C657.806 164.347 656.646 163.367 655.793 162.06C654.939 160.74 654.513 159.093 654.513 157.12C654.513 155.52 654.873 154.08 655.593 152.8C656.313 151.507 657.353 150.487 658.713 149.74C660.073 148.98 661.719 148.6 663.653 148.6C665.506 148.6 667.113 148.927 668.473 149.58C669.833 150.22 670.879 151.193 671.613 152.5C672.346 153.807 672.713 155.46 672.713 157.46C672.713 157.567 672.706 157.78 672.693 158.1C672.693 158.42 672.679 158.627 672.653 158.72H661.213ZM666.053 155.52C666.039 155.08 665.939 154.687 665.753 154.34C665.579 153.993 665.326 153.72 664.993 153.52C664.659 153.32 664.253 153.22 663.773 153.22C663.306 153.22 662.893 153.313 662.533 153.5C662.173 153.687 661.893 153.953 661.693 154.3C661.493 154.633 661.379 155.04 661.353 155.52H666.053ZM681.986 165.5H674.906V149.08H681.986V151.5H681.886C682.019 151.207 682.286 150.833 682.686 150.38C683.099 149.927 683.673 149.52 684.406 149.16C685.153 148.787 686.079 148.6 687.186 148.6C687.933 148.6 688.639 148.72 689.306 148.96C689.973 149.2 690.459 149.433 690.766 149.66L688.046 155.4C687.873 155.147 687.546 154.893 687.066 154.64C686.586 154.373 685.993 154.24 685.286 154.24C684.486 154.24 683.839 154.42 683.346 154.78C682.866 155.127 682.519 155.56 682.306 156.08C682.093 156.6 681.986 157.1 681.986 157.58V165.5ZM701.868 149.08H704.348V144.86C704.348 143.287 704.708 141.953 705.428 140.86C706.148 139.767 707.081 138.933 708.228 138.36C709.374 137.787 710.574 137.5 711.828 137.5C713.374 137.5 714.548 137.707 715.348 138.12C716.161 138.533 716.681 138.847 716.908 139.06L714.228 144.2C714.161 144.107 714.008 143.96 713.768 143.76C713.528 143.56 713.228 143.46 712.868 143.46C712.641 143.46 712.414 143.52 712.188 143.64C711.961 143.76 711.774 143.96 711.628 144.24C711.481 144.52 711.408 144.927 711.408 145.46V149.08H715.248V154.86H711.408V165.5H704.348V154.86H701.868V149.08ZM726.219 165.98C724.379 165.98 722.746 165.613 721.319 164.88C719.892 164.147 718.772 163.133 717.959 161.84C717.146 160.533 716.739 159.033 716.739 157.34C716.739 155.647 717.146 154.147 717.959 152.84C718.772 151.52 719.892 150.487 721.319 149.74C722.746 148.98 724.379 148.6 726.219 148.6C728.046 148.6 729.659 148.98 731.059 149.74C732.472 150.487 733.572 151.52 734.359 152.84C735.159 154.147 735.559 155.647 735.559 157.34C735.559 159.033 735.159 160.533 734.359 161.84C733.572 163.133 732.472 164.147 731.059 164.88C729.659 165.613 728.046 165.98 726.219 165.98ZM726.219 160.2C726.766 160.2 727.239 160.087 727.639 159.86C728.039 159.62 728.346 159.28 728.559 158.84C728.772 158.4 728.879 157.887 728.879 157.3C728.879 156.727 728.772 156.22 728.559 155.78C728.346 155.34 728.039 155 727.639 154.76C727.239 154.507 726.766 154.38 726.219 154.38C725.659 154.38 725.179 154.507 724.779 154.76C724.379 155 724.066 155.34 723.839 155.78C723.612 156.22 723.499 156.727 723.499 157.3C723.499 157.887 723.612 158.4 723.839 158.84C724.066 159.28 724.379 159.62 724.779 159.86C725.179 160.087 725.659 160.2 726.219 160.2ZM744.838 165.5H737.758V149.08H744.838V151.5H744.738C744.871 151.207 745.138 150.833 745.538 150.38C745.951 149.927 746.524 149.52 747.258 149.16C748.004 148.787 748.931 148.6 750.038 148.6C750.784 148.6 751.491 148.72 752.158 148.96C752.824 149.2 753.311 149.433 753.618 149.66L750.898 155.4C750.724 155.147 750.398 154.893 749.918 154.64C749.438 154.373 748.844 154.24 748.138 154.24C747.338 154.24 746.691 154.42 746.198 154.78C745.718 155.127 745.371 155.56 745.158 156.08C744.944 156.6 744.838 157.1 744.838 157.58V165.5Z" fill="url(#paint2_linear_28_61)"/>
<path d="M775.082 137.5L785.441 151.733L775.326 165.5H778.214L788.323 151.737L777.952 137.5H775.082ZM780.598 137.5L791.121 151.564L780.6 165.5H783.512L793.5 152.269V150.863L783.506 137.5H780.598ZM773.874 139.795L765.512 150.793L765.5 152.201L773.903 163.511L775.348 161.545L767.886 151.511L775.307 141.762L773.874 139.795Z" fill="url(#paint3_linear_28_61)"/>
<path d="M821.38 159.08C822.433 159.08 823.427 158.92 824.36 158.6C825.293 158.28 826.007 157.96 826.5 157.64L829.46 163.54C828.833 164.073 827.753 164.613 826.22 165.16C824.7 165.707 822.9 165.98 820.82 165.98C818.873 165.98 817.04 165.64 815.32 164.96C813.6 164.28 812.073 163.327 810.74 162.1C809.42 160.873 808.387 159.433 807.64 157.78C806.893 156.113 806.52 154.3 806.52 152.34C806.52 150.38 806.893 148.567 807.64 146.9C808.387 145.22 809.42 143.767 810.74 142.54C812.06 141.3 813.58 140.34 815.3 139.66C817.033 138.967 818.873 138.62 820.82 138.62C822.9 138.62 824.7 138.893 826.22 139.44C827.753 139.987 828.833 140.527 829.46 141.06L826.5 146.96C826.007 146.64 825.293 146.32 824.36 146C823.427 145.68 822.433 145.52 821.38 145.52C820.073 145.52 818.953 145.713 818.02 146.1C817.1 146.487 816.347 147.007 815.76 147.66C815.173 148.313 814.74 149.04 814.46 149.84C814.193 150.64 814.06 151.453 814.06 152.28C814.06 153.12 814.193 153.947 814.46 154.76C814.74 155.56 815.173 156.287 815.76 156.94C816.347 157.593 817.1 158.113 818.02 158.5C818.953 158.887 820.073 159.08 821.38 159.08ZM840.017 165.5H832.917V137.98H840.017V165.5ZM852.164 165.98C850.324 165.98 848.691 165.613 847.264 164.88C845.838 164.147 844.718 163.133 843.904 161.84C843.091 160.533 842.684 159.033 842.684 157.34C842.684 155.647 843.091 154.147 843.904 152.84C844.718 151.52 845.838 150.487 847.264 149.74C848.691 148.98 850.324 148.6 852.164 148.6C853.991 148.6 855.604 148.98 857.004 149.74C858.418 150.487 859.518 151.52 860.304 152.84C861.104 154.147 861.504 155.647 861.504 157.34C861.504 159.033 861.104 160.533 860.304 161.84C859.518 163.133 858.418 164.147 857.004 164.88C855.604 165.613 853.991 165.98 852.164 165.98ZM852.164 160.2C852.711 160.2 853.184 160.087 853.584 159.86C853.984 159.62 854.291 159.28 854.504 158.84C854.718 158.4 854.824 157.887 854.824 157.3C854.824 156.727 854.718 156.22 854.504 155.78C854.291 155.34 853.984 155 853.584 154.76C853.184 154.507 852.711 154.38 852.164 154.38C851.604 154.38 851.124 154.507 850.724 154.76C850.324 155 850.011 155.34 849.784 155.78C849.558 156.22 849.444 156.727 849.444 157.3C849.444 157.887 849.558 158.4 849.784 158.84C850.011 159.28 850.324 159.62 850.724 159.86C851.124 160.087 851.604 160.2 852.164 160.2ZM871.103 156.42C871.103 157.567 871.303 158.487 871.703 159.18C872.103 159.86 872.816 160.2 873.843 160.2C874.883 160.2 875.603 159.86 876.003 159.18C876.403 158.487 876.603 157.567 876.603 156.42V149.08H883.563V157.14C883.563 158.953 883.183 160.527 882.423 161.86C881.663 163.18 880.556 164.2 879.103 164.92C877.663 165.627 875.909 165.98 873.843 165.98C871.789 165.98 870.043 165.627 868.603 164.92C867.163 164.2 866.056 163.18 865.283 161.86C864.523 160.527 864.143 158.953 864.143 157.14V149.08H871.103V156.42ZM893.824 165.98C892.197 165.98 890.804 165.58 889.644 164.78C888.484 163.98 887.584 162.92 886.944 161.6C886.317 160.28 886.004 158.847 886.004 157.3C886.004 155.753 886.317 154.32 886.944 153C887.584 151.68 888.484 150.62 889.644 149.82C890.804 149.007 892.197 148.6 893.824 148.6C894.81 148.6 895.69 148.747 896.464 149.04C897.237 149.32 897.864 149.667 898.344 150.08C898.837 150.48 899.15 150.86 899.284 151.22V137.98H906.344V165.5H899.344V163.04C899.037 163.56 898.597 164.047 898.024 164.5C897.464 164.94 896.817 165.293 896.084 165.56C895.364 165.84 894.61 165.98 893.824 165.98ZM896.084 160.48C896.71 160.48 897.264 160.34 897.744 160.06C898.224 159.78 898.597 159.4 898.864 158.92C899.144 158.427 899.284 157.887 899.284 157.3C899.284 156.713 899.144 156.18 898.864 155.7C898.597 155.207 898.224 154.82 897.744 154.54C897.264 154.247 896.71 154.1 896.084 154.1C895.484 154.1 894.944 154.247 894.464 154.54C893.984 154.82 893.604 155.207 893.324 155.7C893.057 156.18 892.924 156.713 892.924 157.3C892.924 157.887 893.057 158.427 893.324 158.92C893.604 159.4 893.984 159.78 894.464 160.06C894.944 160.34 895.484 160.48 896.084 160.48ZM908.594 149.08H911.074V144.86C911.074 143.287 911.434 141.953 912.154 140.86C912.874 139.767 913.808 138.933 914.954 138.36C916.101 137.787 917.301 137.5 918.554 137.5C920.101 137.5 921.274 137.707 922.074 138.12C922.888 138.533 923.408 138.847 923.634 139.06L920.954 144.2C920.888 144.107 920.734 143.96 920.494 143.76C920.254 143.56 919.954 143.46 919.594 143.46C919.368 143.46 919.141 143.52 918.914 143.64C918.688 143.76 918.501 143.96 918.354 144.24C918.208 144.52 918.134 144.927 918.134 145.46V149.08H921.974V154.86H918.134V165.5H911.074V154.86H908.594V149.08ZM931.294 165.5H924.194V137.98H931.294V165.5ZM947.353 165.5V163.04C947.22 163.293 946.92 163.66 946.453 164.14C945.987 164.607 945.367 165.033 944.593 165.42C943.833 165.793 942.94 165.98 941.913 165.98C940.287 165.98 938.88 165.58 937.693 164.78C936.507 163.98 935.587 162.92 934.933 161.6C934.293 160.28 933.973 158.847 933.973 157.3C933.973 155.753 934.293 154.32 934.933 153C935.587 151.68 936.507 150.62 937.693 149.82C938.88 149.007 940.287 148.6 941.913 148.6C942.887 148.6 943.733 148.747 944.453 149.04C945.187 149.333 945.787 149.68 946.253 150.08C946.733 150.48 947.073 150.86 947.273 151.22V149.08H954.313V165.5H947.353ZM940.913 157.3C940.913 157.887 941.053 158.427 941.333 158.92C941.613 159.4 941.993 159.78 942.473 160.06C942.953 160.34 943.5 160.48 944.113 160.48C944.727 160.48 945.267 160.34 945.733 160.06C946.213 159.78 946.587 159.4 946.853 158.92C947.133 158.427 947.273 157.887 947.273 157.3C947.273 156.713 947.133 156.18 946.853 155.7C946.587 155.207 946.213 154.82 945.733 154.54C945.267 154.247 944.727 154.1 944.113 154.1C943.5 154.1 942.953 154.247 942.473 154.54C941.993 154.82 941.613 155.207 941.333 155.7C941.053 156.18 940.913 156.713 940.913 157.3ZM964.259 165.5H957.179V149.08H964.259V151.5H964.159C964.293 151.207 964.559 150.833 964.959 150.38C965.373 149.927 965.946 149.52 966.679 149.16C967.426 148.787 968.353 148.6 969.459 148.6C970.206 148.6 970.913 148.72 971.579 148.96C972.246 149.2 972.733 149.433 973.039 149.66L970.319 155.4C970.146 155.147 969.819 154.893 969.339 154.64C968.859 154.373 968.266 154.24 967.559 154.24C966.759 154.24 966.113 154.42 965.619 154.78C965.139 155.127 964.793 155.56 964.579 156.08C964.366 156.6 964.259 157.1 964.259 157.58V165.5ZM979.853 158.72C979.906 159.16 980.08 159.547 980.373 159.88C980.68 160.2 981.08 160.453 981.573 160.64C982.08 160.813 982.673 160.9 983.353 160.9C984.02 160.9 984.646 160.853 985.233 160.76C985.82 160.653 986.34 160.513 986.793 160.34C987.26 160.167 987.626 159.973 987.893 159.76L990.513 164.16C990.22 164.413 989.78 164.68 989.193 164.96C988.606 165.24 987.8 165.48 986.773 165.68C985.76 165.88 984.46 165.98 982.873 165.98C981.033 165.98 979.38 165.653 977.913 165C976.446 164.347 975.286 163.367 974.433 162.06C973.58 160.74 973.153 159.093 973.153 157.12C973.153 155.52 973.513 154.08 974.233 152.8C974.953 151.507 975.993 150.487 977.353 149.74C978.713 148.98 980.36 148.6 982.293 148.6C984.146 148.6 985.753 148.927 987.113 149.58C988.473 150.22 989.52 151.193 990.253 152.5C990.986 153.807 991.353 155.46 991.353 157.46C991.353 157.567 991.346 157.78 991.333 158.1C991.333 158.42 991.32 158.627 991.293 158.72H979.853ZM984.693 155.52C984.68 155.08 984.58 154.687 984.393 154.34C984.22 153.993 983.966 153.72 983.633 153.52C983.3 153.32 982.893 153.22 982.413 153.22C981.946 153.22 981.533 153.313 981.173 153.5C980.813 153.687 980.533 153.953 980.333 154.3C980.133 154.633 980.02 155.04 979.993 155.52H984.693ZM1033.57 165.5H1025.27L1021.25 148.62H1022.47L1018.41 165.5H1010.09L1003.87 139.1H1011.89L1014.73 156.32H1014.65L1019.33 139.1H1024.37L1029.05 156.32H1028.95L1031.81 139.1H1039.81L1033.57 165.5ZM1050.48 165.98C1048.64 165.98 1047.01 165.613 1045.58 164.88C1044.16 164.147 1043.04 163.133 1042.22 161.84C1041.41 160.533 1041 159.033 1041 157.34C1041 155.647 1041.41 154.147 1042.22 152.84C1043.04 151.52 1044.16 150.487 1045.58 149.74C1047.01 148.98 1048.64 148.6 1050.48 148.6C1052.31 148.6 1053.92 148.98 1055.32 149.74C1056.74 150.487 1057.84 151.52 1058.62 152.84C1059.42 154.147 1059.82 155.647 1059.82 157.34C1059.82 159.033 1059.42 160.533 1058.62 161.84C1057.84 163.133 1056.74 164.147 1055.32 164.88C1053.92 165.613 1052.31 165.98 1050.48 165.98ZM1050.48 160.2C1051.03 160.2 1051.5 160.087 1051.9 159.86C1052.3 159.62 1052.61 159.28 1052.82 158.84C1053.04 158.4 1053.14 157.887 1053.14 157.3C1053.14 156.727 1053.04 156.22 1052.82 155.78C1052.61 155.34 1052.3 155 1051.9 154.76C1051.5 154.507 1051.03 154.38 1050.48 154.38C1049.92 154.38 1049.44 154.507 1049.04 154.76C1048.64 155 1048.33 155.34 1048.1 155.78C1047.88 156.22 1047.76 156.727 1047.76 157.3C1047.76 157.887 1047.88 158.4 1048.1 158.84C1048.33 159.28 1048.64 159.62 1049.04 159.86C1049.44 160.087 1049.92 160.2 1050.48 160.2ZM1069.1 165.5H1062.02V149.08H1069.1V151.5H1069C1069.14 151.207 1069.4 150.833 1069.8 150.38C1070.22 149.927 1070.79 149.52 1071.52 149.16C1072.27 148.787 1073.2 148.6 1074.3 148.6C1075.05 148.6 1075.76 148.72 1076.42 148.96C1077.09 149.2 1077.58 149.433 1077.88 149.66L1075.16 155.4C1074.99 155.147 1074.66 154.893 1074.18 154.64C1073.7 154.373 1073.11 154.24 1072.4 154.24C1071.6 154.24 1070.96 154.42 1070.46 154.78C1069.98 155.127 1069.64 155.56 1069.42 156.08C1069.21 156.6 1069.1 157.1 1069.1 157.58V165.5ZM1090.95 149.08H1098.85L1091.37 156.92L1099.73 165.5H1091.63L1085.79 159.16V165.5H1078.71V137.98H1085.79V154.48L1090.95 149.08ZM1106.14 158.72C1106.2 159.16 1106.37 159.547 1106.66 159.88C1106.97 160.2 1107.37 160.453 1107.86 160.64C1108.37 160.813 1108.96 160.9 1109.64 160.9C1110.31 160.9 1110.94 160.853 1111.52 160.76C1112.11 160.653 1112.63 160.513 1113.08 160.34C1113.55 160.167 1113.92 159.973 1114.18 159.76L1116.8 164.16C1116.51 164.413 1116.07 164.68 1115.48 164.96C1114.9 165.24 1114.09 165.48 1113.06 165.68C1112.05 165.88 1110.75 165.98 1109.16 165.98C1107.32 165.98 1105.67 165.653 1104.2 165C1102.74 164.347 1101.58 163.367 1100.72 162.06C1099.87 160.74 1099.44 159.093 1099.44 157.12C1099.44 155.52 1099.8 154.08 1100.52 152.8C1101.24 151.507 1102.28 150.487 1103.64 149.74C1105 148.98 1106.65 148.6 1108.58 148.6C1110.44 148.6 1112.04 148.927 1113.4 149.58C1114.76 150.22 1115.81 151.193 1116.54 152.5C1117.28 153.807 1117.64 155.46 1117.64 157.46C1117.64 157.567 1117.64 157.78 1117.62 158.1C1117.62 158.42 1117.61 158.627 1117.58 158.72H1106.14ZM1110.98 155.52C1110.97 155.08 1110.87 154.687 1110.68 154.34C1110.51 153.993 1110.26 153.72 1109.92 153.52C1109.59 153.32 1109.18 153.22 1108.7 153.22C1108.24 153.22 1107.82 153.313 1107.46 153.5C1107.1 153.687 1106.82 153.953 1106.62 154.3C1106.42 154.633 1106.31 155.04 1106.28 155.52H1110.98ZM1126.92 165.5H1119.84V149.08H1126.92V151.5H1126.82C1126.95 151.207 1127.22 150.833 1127.62 150.38C1128.03 149.927 1128.6 149.52 1129.34 149.16C1130.08 148.787 1131.01 148.6 1132.12 148.6C1132.86 148.6 1133.57 148.72 1134.24 148.96C1134.9 149.2 1135.39 149.433 1135.7 149.66L1132.98 155.4C1132.8 155.147 1132.48 154.893 1132 154.64C1131.52 154.373 1130.92 154.24 1130.22 154.24C1129.42 154.24 1128.77 154.42 1128.28 154.78C1127.8 155.127 1127.45 155.56 1127.24 156.08C1127.02 156.6 1126.92 157.1 1126.92 157.58V165.5ZM1144.66 148.6C1145.81 148.6 1146.86 148.693 1147.8 148.88C1148.76 149.067 1149.56 149.273 1150.18 149.5C1150.82 149.713 1151.22 149.88 1151.38 150L1149.16 154.12C1148.92 153.947 1148.46 153.72 1147.76 153.44C1147.08 153.147 1146.33 153 1145.5 153C1144.96 153 1144.5 153.067 1144.14 153.2C1143.8 153.32 1143.62 153.533 1143.62 153.84C1143.62 154.133 1143.83 154.38 1144.24 154.58C1144.66 154.767 1145.28 154.933 1146.12 155.08C1146.88 155.227 1147.68 155.473 1148.52 155.82C1149.36 156.153 1150.07 156.667 1150.64 157.36C1151.23 158.04 1151.52 158.953 1151.52 160.1C1151.52 161.327 1151.26 162.327 1150.72 163.1C1150.19 163.86 1149.49 164.453 1148.62 164.88C1147.77 165.293 1146.84 165.58 1145.84 165.74C1144.86 165.9 1143.91 165.98 1143 165.98C1141.67 165.98 1140.52 165.86 1139.54 165.62C1138.57 165.393 1137.79 165.133 1137.2 164.84C1136.63 164.547 1136.24 164.32 1136.02 164.16L1138.2 159.58C1138.55 159.86 1139.11 160.18 1139.88 160.54C1140.67 160.9 1141.48 161.08 1142.32 161.08C1143.07 161.08 1143.63 161 1144 160.84C1144.39 160.667 1144.58 160.433 1144.58 160.14C1144.58 159.913 1144.49 159.727 1144.3 159.58C1144.12 159.433 1143.84 159.3 1143.48 159.18C1143.12 159.06 1142.67 158.947 1142.12 158.84C1141.63 158.747 1141.08 158.593 1140.48 158.38C1139.88 158.153 1139.31 157.84 1138.76 157.44C1138.23 157.04 1137.78 156.533 1137.42 155.92C1137.08 155.293 1136.9 154.533 1136.9 153.64C1136.9 152.493 1137.28 151.553 1138.02 150.82C1138.77 150.073 1139.73 149.52 1140.9 149.16C1142.09 148.787 1143.34 148.6 1144.66 148.6ZM1158.66 165.98C1157.57 165.98 1156.63 165.593 1155.84 164.82C1155.07 164.033 1154.68 163.093 1154.68 162C1154.68 160.88 1155.07 159.933 1155.84 159.16C1156.63 158.373 1157.57 157.98 1158.66 157.98C1159.77 157.98 1160.71 158.373 1161.48 159.16C1162.27 159.933 1162.66 160.88 1162.66 162C1162.66 163.093 1162.27 164.033 1161.48 164.82C1160.71 165.593 1159.77 165.98 1158.66 165.98Z" fill="url(#paint4_linear_28_61)"/>
<defs>
<filter id="filter0_d_28_61" x="34" y="33.5" width="1432" height="87" filterUnits="userSpaceOnUse" color-interpolation-filters="sRGB">
<feFlood flood-opacity="0" result="BackgroundImageFix"/>
<feColorMatrix in="SourceAlpha" type="matrix" values="0 0 0 0 0 0 0 0 0 0 0 0 0 0 0 0 0 0 127 0" result="hardAlpha"/>
<feOffset/>
<feGaussianBlur stdDeviation="1.5"/>
<feComposite in2="hardAlpha" operator="out"/>
<feColorMatrix type="matrix" values="0 0 0 0 0 0 0 0 0 0 0 0 0 0 0 0 0 0 0.25 0"/>
<feBlend mode="normal" in2="BackgroundImageFix" result="effect1_dropShadow_28_61"/>
<feBlend mode="normal" in="SourceGraphic" in2="effect1_dropShadow_28_61" result="shape"/>
</filter>
<linearGradient id="paint0_linear_28_61" x1="750" y1="0" x2="750" y2="227" gradientUnits="userSpaceOnUse">
<stop stop-color="#641F01"/>
<stop offset="1" stop-color="#180B02"/>
</linearGradient>
<linearGradient id="paint1_linear_28_61" x1="750" y1="42.5" x2="750" y2="111.5" gradientUnits="userSpaceOnUse">
<stop stop-color="#FF9142"/>
<stop offset="1" stop-color="#B64303"/>
</linearGradient>
<linearGradient id="paint2_linear_28_61" x1="520.5" y1="137.5" x2="520.5" y2="164.5" gradientUnits="userSpaceOnUse">
<stop stop-color="white"/>
<stop offset="1" stop-color="#CDCDCD"/>
</linearGradient>
<linearGradient id="paint3_linear_28_61" x1="779.5" y1="137.5" x2="779.5" y2="165.5" gradientUnits="userSpaceOnUse">
<stop stop-color="white"/>
<stop offset="1" stop-color="#CDCDCD"/>
</linearGradient>
<linearGradient id="paint4_linear_28_61" x1="1009" y1="137.5" x2="1009" y2="164.5" gradientUnits="userSpaceOnUse">
<stop stop-color="white"/>
<stop offset="1" stop-color="#CDCDCD"/>
</linearGradient>
</defs>
</svg>
